<svg width="20" height="20" viewBox="0 0 20 20" fill="none" xmlns="http://www.w3.org/2000/svg">
    <g clip-path="url(#clip0_513_4983)">
        <path d="M20 0H18.4375V0.625H19.375V1.875H20V0ZM16.875 0H15.3125V0.625H16.875V0ZM13.75 0H12.1875V0.625H13.75V0ZM10.625 0H9.0625V0.625H10.625V0ZM7.5 0H5.9375V0.625H7.5V0ZM4.375 0H2.8125V0.625H4.375V0ZM1.25 0H0V0.625H1.25V0ZM0.625 1.875H0V3.4375H0.625V1.875ZM0.625 5H0V6.5625H0.625V5ZM0.625 8.125H0V9.6875H0.625V8.125ZM0.625 11.25H0V12.8125H0.625V11.25ZM0.625 14.375H0V15.9375H0.625V14.375ZM0.625 17.5H0V19.0625H0.625V17.5ZM2.1875 19.375H0.625V20H2.1875V19.375ZM5.3125 19.375H3.75V20H5.3125V19.375ZM8.4375 19.375H6.875V20H8.4375V19.375ZM11.5625 19.375H10V20H11.5625V19.375ZM14.6875 19.375H13.125V20H14.6875V19.375ZM17.8125 19.375H16.25V20H17.8125V19.375ZM20 19.0625H19.375V19.375V20H20V19.0625ZM20 15.9375H19.375V17.5H20V15.9375ZM20 12.8125H19.375V14.375H20V12.8125ZM20 9.6875H19.375V11.25H20V9.6875ZM20 6.5625H19.375V8.125H20V6.5625ZM20 3.4375H19.375V5H20V3.4375Z"
              fill="black"/>
        <path d="M10.4688 6.875H9.53125V13.1281H10.4688V6.875Z" fill="#E70A4E"/>
        <path d="M13.1281 9.53125H6.875V10.4688H13.1281V9.53125Z" fill="#E70A4E"/>
    </g>
    <defs>
        <clipPath id="clip0_513_4983">
            <rect width="20" height="20" fill="white"/>
        </clipPath>
    </defs>
</svg>
