<svg width="21" height="21" viewBox="0 0 21 21" fill="none" xmlns="http://www.w3.org/2000/svg">
<g clip-path="url(#clip0_3559_39644)">
<path d="M20.7808 0.5H19.2183V1.125H20.1558V2.375H20.7808V0.5ZM17.6558 0.5H16.0933V1.125H17.6558V0.5ZM14.5308 0.5H12.9683V1.125H14.5308V0.5ZM11.4058 0.5H9.84326V1.125H11.4058V0.5ZM8.28076 0.5H6.71826V1.125H8.28076V0.5ZM5.15576 0.5H3.59326V1.125H5.15576V0.5ZM2.03076 0.5H0.780762V1.125H2.03076V0.5ZM1.40576 2.375H0.780762V3.9375H1.40576V2.375ZM1.40576 5.5H0.780762V7.0625H1.40576V5.5ZM1.40576 8.625H0.780762V10.1875H1.40576V8.625ZM1.40576 11.75H0.780762V13.3125H1.40576V11.75ZM1.40576 14.875H0.780762V16.4375H1.40576V14.875ZM1.40576 18H0.780762V19.5625H1.40576V18ZM2.96826 19.875H1.40576V20.5H2.96826V19.875ZM6.09326 19.875H4.53076V20.5H6.09326V19.875ZM9.21826 19.875H7.65576V20.5H9.21826V19.875ZM12.3433 19.875H10.7808V20.5H12.3433V19.875ZM15.4683 19.875H13.9058V20.5H15.4683V19.875ZM18.5933 19.875H17.0308V20.5H18.5933V19.875ZM20.7808 19.5625H20.1558V19.875V20.5H20.7808V19.5625ZM20.7808 16.4375H20.1558V18H20.7808V16.4375ZM20.7808 13.3125H20.1558V14.875H20.7808V13.3125ZM20.7808 10.1875H20.1558V11.75H20.7808V10.1875ZM20.7808 7.0625H20.1558V8.625H20.7808V7.0625ZM20.7808 3.9375H20.1558V5.5H20.7808V3.9375Z" fill="#292626"/>
<path d="M11.2495 7.37402H10.312V13.6271H11.2495V7.37402Z" fill="#292626"/>
<path d="M13.9079 10.0312H7.65479V10.9688H13.9079V10.0312Z" fill="#292626"/>
</g>
<defs>
<clipPath id="clip0_3559_39644">
<rect width="20" height="20" fill="white" transform="translate(0.780762 0.5)"/>
</clipPath>
</defs>
</svg>
