<svg width="23" height="23" viewBox="0 0 23 23" fill="none" xmlns="http://www.w3.org/2000/svg">
    <path fill-rule="evenodd" clip-rule="evenodd"
          d="M20.612 3.6888V20.6159H3.6849C3.25365 20.6159 2.90365 20.9659 2.90365 21.3971C2.90365 21.8284 3.25365 22.1784 3.6849 22.1784H21.3932C21.8245 22.1784 22.1745 21.8284 22.1745 21.3971V3.6888C22.1745 3.25755 21.8245 2.90755 21.3932 2.90755C20.962 2.90755 20.612 3.25755 20.612 3.6888ZM19.0495 2.64714C19.0495 2.1638 18.8573 1.70026 18.5156 1.35807C18.1734 1.0164 17.7099 0.824219 17.2266 0.824219H2.64323C2.1599 0.824219 1.69637 1.0164 1.35418 1.35807C1.01251 1.70026 0.820312 2.1638 0.820312 2.64714V17.2305C0.820312 17.7138 1.01251 18.1773 1.35418 18.5195C1.69637 18.8612 2.1599 19.0534 2.64323 19.0534H17.2266C17.7099 19.0534 18.1734 18.8612 18.5156 18.5195C18.8573 18.1773 19.0495 17.7138 19.0495 17.2305V2.64714ZM9.15365 9.15755H6.8099C6.37865 9.15755 6.02865 9.50755 6.02865 9.9388C6.02865 10.3701 6.37865 10.7201 6.8099 10.7201H9.15365V13.0638C9.15365 13.4951 9.50365 13.8451 9.9349 13.8451C10.3661 13.8451 10.7161 13.4951 10.7161 13.0638V10.7201H13.0599C13.4911 10.7201 13.8411 10.3701 13.8411 9.9388C13.8411 9.50755 13.4911 9.15755 13.0599 9.15755H10.7161V6.8138C10.7161 6.38255 10.3661 6.03255 9.9349 6.03255C9.50365 6.03255 9.15365 6.38255 9.15365 6.8138V9.15755Z"
          fill="black"/>
</svg>
