<svg width="21" height="23" viewBox="0 0 21 23" fill="none" xmlns="http://www.w3.org/2000/svg">
<path d="M18.2547 3.8459L12.4817 0.507149C11.3762 -0.129336 9.6454 -0.129336 8.53992 0.507149L2.71107 3.86823C0.399622 5.43153 0.265625 5.66602 0.265625 8.15613V14.2195C0.265625 16.7096 0.399622 16.9552 2.75573 18.5409L8.52876 21.8796C9.08708 22.2035 9.80173 22.3598 10.5052 22.3598C11.2087 22.3598 11.9233 22.2035 12.4705 21.8796L18.2994 18.5185C20.6108 16.9552 20.7448 16.7208 20.7448 14.2306V8.15613C20.7448 5.66602 20.6108 5.43153 18.2547 3.8459ZM10.5052 14.8225C8.50643 14.8225 6.87613 13.1922 6.87613 11.1934C6.87613 9.1946 8.50643 7.56431 10.5052 7.56431C12.504 7.56431 14.1343 9.1946 14.1343 11.1934C14.1343 13.1922 12.504 14.8225 10.5052 14.8225Z" fill="white"/>
</svg>
