<svg width="23" height="23" viewBox="0 0 23 23" fill="none" xmlns="http://www.w3.org/2000/svg">
<path d="M16.4603 5.87207H6.52471C6.15727 5.87207 5.85938 6.16996 5.85938 6.5374V16.473C5.85938 16.8405 6.15727 17.1384 6.52471 17.1384H16.4603C16.8278 17.1384 17.1257 16.8405 17.1257 16.473V6.5374C17.1257 6.16996 16.8278 5.87207 16.4603 5.87207ZM12.9119 10.0415H12.1579V13.6343C12.1579 14.0017 11.86 14.2996 11.4925 14.2996C11.1251 14.2996 10.8272 14.0017 10.8272 13.6343V10.0415H10.0731C9.7057 10.0415 9.40781 9.74359 9.40781 9.37615C9.40781 9.00871 9.7057 8.71082 10.0731 8.71082H12.9119C13.2793 8.71082 13.5772 9.00871 13.5772 9.37615C13.5772 9.74359 13.2793 10.0415 12.9119 10.0415Z" fill="white"/>
<path d="M22.1812 18.6465H19.2981C18.9307 18.6465 18.6328 18.9444 18.6328 19.3118V22.1949C18.6328 22.5624 18.9307 22.8603 19.2981 22.8603H22.1812C22.5487 22.8603 22.8466 22.5624 22.8466 22.1949V19.3118C22.8466 18.9444 22.5487 18.6465 22.1812 18.6465Z" fill="white"/>
<path d="M22.1814 0.150391H19.2983C18.9308 0.150391 18.6329 0.448282 18.6329 0.815723V1.61412H4.35049V0.815723C4.35049 0.448282 4.0526 0.150391 3.68516 0.150391H0.802051C0.43461 0.150391 0.136719 0.448282 0.136719 0.815723V3.69883C0.136719 4.06627 0.43461 4.36416 0.802051 4.36416H1.60045V18.6466H0.802051C0.43461 18.6466 0.136719 18.9445 0.136719 19.312V22.1951C0.136719 22.5625 0.43461 22.8604 0.802051 22.8604H3.68516C4.0526 22.8604 4.35049 22.5625 4.35049 22.1951V19.312C4.35049 18.9445 4.0526 18.6466 3.68516 18.6466H2.93111V4.36416H3.68516C4.0526 4.36416 4.35049 4.06627 4.35049 3.69883V2.94479H18.6329V3.69883C18.6329 4.06627 18.9308 4.36416 19.2983 4.36416H22.1814C22.5488 4.36416 22.8467 4.06627 22.8467 3.69883V0.815723C22.8467 0.448282 22.5488 0.150391 22.1814 0.150391Z" fill="white"/>
<path d="M20.7161 8.62211C21.0836 8.62211 21.3814 8.32422 21.3814 7.95678V6.5374C21.3814 6.16996 21.0836 5.87207 20.7161 5.87207C20.3487 5.87207 20.0508 6.16996 20.0508 6.5374V7.95678C20.0508 8.32422 20.3487 8.62211 20.7161 8.62211Z" fill="white"/>
<path d="M20.0508 12.2156C20.0508 12.583 20.3487 12.8809 20.7161 12.8809C21.0836 12.8809 21.3814 12.583 21.3814 12.2156V10.7962C21.3814 10.4288 21.0836 10.1309 20.7161 10.1309C20.3487 10.1309 20.0508 10.4288 20.0508 10.7962V12.2156Z" fill="white"/>
<path d="M20.0508 16.4734C20.0508 16.8408 20.3487 17.1387 20.7161 17.1387C21.0836 17.1387 21.3814 16.8408 21.3814 16.4734V15.054C21.3814 14.6866 21.0836 14.3887 20.7161 14.3887C20.3487 14.3887 20.0508 14.6866 20.0508 15.054V16.4734Z" fill="white"/>
<path d="M16.4597 20.0664H15.0403C14.6729 20.0664 14.375 20.3643 14.375 20.7317C14.375 21.0992 14.6729 21.3971 15.0403 21.3971H16.4597C16.8271 21.3971 17.125 21.0992 17.125 20.7317C17.125 20.3643 16.8271 20.0664 16.4597 20.0664Z" fill="white"/>
<path d="M12.2019 20.0664H10.7825C10.4151 20.0664 10.1172 20.3643 10.1172 20.7317C10.1172 21.0992 10.4151 21.3971 10.7825 21.3971H12.2019C12.5693 21.3971 12.8672 21.0992 12.8672 20.7317C12.8672 20.3643 12.5693 20.0664 12.2019 20.0664Z" fill="white"/>
<path d="M7.94408 20.0664H6.52471C6.15727 20.0664 5.85938 20.3643 5.85938 20.7317C5.85938 21.0992 6.15727 21.3971 6.52471 21.3971H7.94408C8.31152 21.3971 8.60941 21.0992 8.60941 20.7317C8.60941 20.3643 8.31152 20.0664 7.94408 20.0664Z" fill="white"/>
</svg>
