<svg width="30" height="31" viewBox="0 0 30 31" fill="none" xmlns="http://www.w3.org/2000/svg">
    <path fill-rule="evenodd" clip-rule="evenodd"
          d="M15.0036 5.16797C14.7248 5.16797 14.4461 5.21267 14.1781 5.30153L6.03293 8.00236C5.43676 8.20004 5.03125 8.76086 5.03125 9.38895V21.6113C5.03125 22.2394 5.43676 22.8003 6.03293 22.9979L14.1781 25.6988C14.7141 25.8765 15.2931 25.8765 15.829 25.6988L23.9742 22.9979C24.5704 22.8003 24.9759 22.2394 24.9759 21.6113V9.38895C24.9759 8.76086 24.5704 8.20004 23.9742 8.00236L15.829 5.30153C15.561 5.21267 15.2824 5.16797 15.0036 5.16797ZM15.0036 6.11771C15.1815 6.11771 15.3594 6.14634 15.5304 6.20304L22.9911 8.67664L15.0036 11.3255L7.01607 8.67664L14.4768 6.20304C14.6478 6.14634 14.8257 6.11771 15.0036 6.11771ZM5.98934 9.33701L14.5287 12.1696V24.8102C14.5115 24.8052 14.4938 24.8029 14.4768 24.7973L6.33158 22.0964C6.12048 22.0264 5.98099 21.8338 5.98099 21.6113V9.38895C5.98099 9.37084 5.98753 9.35468 5.98934 9.33701Z"
          fill="black"/>
</svg>
