<svg width="31" height="32" viewBox="0 0 31 32" fill="none" xmlns="http://www.w3.org/2000/svg">
    <g filter="url(#filter0_d_513_4760)">
        <path d="M23.2409 25.4994H17.4823C16.5102 25.4994 15.7188 24.708 15.7188 23.7359V16.5487C15.7188 15.5766 16.5102 14.7852 17.4823 14.7852H23.2409C24.213 14.7852 25.0045 15.5766 25.0045 16.5487V23.7359C25.0045 24.708 24.213 25.4994 23.2409 25.4994ZM17.4823 16.2137C17.2973 16.2137 17.1473 16.3637 17.1473 16.5487V23.7359C17.1473 23.9209 17.2973 24.0709 17.4823 24.0709H23.2409C23.4259 24.0709 23.5759 23.9209 23.5759 23.7359V16.5487C23.5759 16.3637 23.4259 16.2137 23.2409 16.2137H17.4823Z"
              fill="black"/>
        <path d="M23.2409 25.4994H17.4823C16.5102 25.4994 15.7188 24.708 15.7188 23.7359V16.5487C15.7188 15.5766 16.5102 14.7852 17.4823 14.7852H23.2409C24.213 14.7852 25.0045 15.5766 25.0045 16.5487V23.7359C25.0045 24.708 24.213 25.4994 23.2409 25.4994ZM17.4823 16.2137C17.2973 16.2137 17.1473 16.3637 17.1473 16.5487V23.7359C17.1473 23.9209 17.2973 24.0709 17.4823 24.0709H23.2409C23.4259 24.0709 23.5759 23.9209 23.5759 23.7359V16.5487C23.5759 16.3637 23.4259 16.2137 23.2409 16.2137H17.4823Z"
              stroke="black"/>
        <path d="M23.2409 13.3571H17.4823C16.5102 13.3571 15.7188 12.5657 15.7188 11.5936V7.26357C15.7188 6.29143 16.5102 5.5 17.4823 5.5H23.2409C24.213 5.5 25.0045 6.29143 25.0045 7.26357V11.5936C25.0045 12.5657 24.213 13.3571 23.2409 13.3571ZM17.4823 6.92857C17.2973 6.92857 17.1473 7.07857 17.1473 7.26357V11.5936C17.1473 11.7786 17.2973 11.9286 17.4823 11.9286H23.2409C23.4259 11.9286 23.5759 11.7786 23.5759 11.5936V7.26357C23.5759 7.07857 23.4259 6.92857 23.2409 6.92857H17.4823Z"
              fill="black"/>
        <path d="M23.2409 13.3571H17.4823C16.5102 13.3571 15.7188 12.5657 15.7188 11.5936V7.26357C15.7188 6.29143 16.5102 5.5 17.4823 5.5H23.2409C24.213 5.5 25.0045 6.29143 25.0045 7.26357V11.5936C25.0045 12.5657 24.213 13.3571 23.2409 13.3571ZM17.4823 6.92857C17.2973 6.92857 17.1473 7.07857 17.1473 7.26357V11.5936C17.1473 11.7786 17.2973 11.9286 17.4823 11.9286H23.2409C23.4259 11.9286 23.5759 11.7786 23.5759 11.5936V7.26357C23.5759 7.07857 23.4259 6.92857 23.2409 6.92857H17.4823Z"
              stroke="black"/>
        <path d="M12.53 16.2143H6.77138C5.79924 16.2143 5.00781 15.4229 5.00781 14.4507V7.26357C5.00781 6.29143 5.79924 5.5 6.77138 5.5H12.53C13.5021 5.5 14.2935 6.29143 14.2935 7.26357V14.4507C14.2935 15.4229 13.5021 16.2143 12.53 16.2143ZM6.77138 6.92857C6.58638 6.92857 6.43638 7.07857 6.43638 7.26357V14.4507C6.43638 14.6357 6.58638 14.7857 6.77138 14.7857H12.53C12.715 14.7857 12.865 14.6357 12.865 14.4507V7.26357C12.865 7.07857 12.715 6.92857 12.53 6.92857H6.77138Z"
              fill="black"/>
        <path d="M12.53 16.2143H6.77138C5.79924 16.2143 5.00781 15.4229 5.00781 14.4507V7.26357C5.00781 6.29143 5.79924 5.5 6.77138 5.5H12.53C13.5021 5.5 14.2935 6.29143 14.2935 7.26357V14.4507C14.2935 15.4229 13.5021 16.2143 12.53 16.2143ZM6.77138 6.92857C6.58638 6.92857 6.43638 7.07857 6.43638 7.26357V14.4507C6.43638 14.6357 6.58638 14.7857 6.77138 14.7857H12.53C12.715 14.7857 12.865 14.6357 12.865 14.4507V7.26357C12.865 7.07857 12.715 6.92857 12.53 6.92857H6.77138Z"
              stroke="black"/>
        <path d="M12.53 25.5017H6.77138C5.79924 25.5017 5.00781 24.7102 5.00781 23.7381V19.4081C5.00781 18.436 5.79924 17.6445 6.77138 17.6445H12.53C13.5021 17.6445 14.2935 18.436 14.2935 19.4081V23.7381C14.2935 24.7102 13.5021 25.5017 12.53 25.5017ZM6.77138 19.0731C6.58638 19.0731 6.43638 19.2231 6.43638 19.4081V23.7381C6.43638 23.9231 6.58638 24.0731 6.77138 24.0731H12.53C12.715 24.0731 12.865 23.9231 12.865 23.7381V19.4081C12.865 19.2231 12.715 19.0731 12.53 19.0731H6.77138Z"
              fill="black"/>
        <path d="M12.53 25.5017H6.77138C5.79924 25.5017 5.00781 24.7102 5.00781 23.7381V19.4081C5.00781 18.436 5.79924 17.6445 6.77138 17.6445H12.53C13.5021 17.6445 14.2935 18.436 14.2935 19.4081V23.7381C14.2935 24.7102 13.5021 25.5017 12.53 25.5017ZM6.77138 19.0731C6.58638 19.0731 6.43638 19.2231 6.43638 19.4081V23.7381C6.43638 23.9231 6.58638 24.0731 6.77138 24.0731H12.53C12.715 24.0731 12.865 23.9231 12.865 23.7381V19.4081C12.865 19.2231 12.715 19.0731 12.53 19.0731H6.77138Z"
              stroke="black"/>
    </g>
    <defs>
        <filter id="filter0_d_513_4760" x="-3.99219" y="-1.5" width="38" height="38" filterUnits="userSpaceOnUse"
                color-interpolation-filters="sRGB">
            <feFlood flood-opacity="0" result="BackgroundImageFix"/>
            <feColorMatrix in="SourceAlpha" type="matrix" values="0 0 0 0 0 0 0 0 0 0 0 0 0 0 0 0 0 0 127 0"
                           result="hardAlpha"/>
            <feOffset dy="2"/>
            <feGaussianBlur stdDeviation="2"/>
            <feComposite in2="hardAlpha" operator="out"/>
            <feColorMatrix type="matrix" values="0 0 0 0 0 0 0 0 0 0 0 0 0 0 0 0 0 0 0.13 0"/>
            <feBlend mode="normal" in2="BackgroundImageFix" result="effect1_dropShadow_513_4760"/>
            <feBlend mode="normal" in="SourceGraphic" in2="effect1_dropShadow_513_4760" result="shape"/>
        </filter>
    </defs>
</svg>
