<svg width="29" height="29" viewBox="0 0 29 29" fill="none" xmlns="http://www.w3.org/2000/svg">
    <path d="M17.5436 5.48828H16.7601C16.3274 5.48828 15.9766 5.83907 15.9766 6.2718V8.62235C15.9766 9.05508 16.3274 9.40587 16.7601 9.40587H17.5436C17.9763 9.40587 18.3271 9.05508 18.3271 8.62235V6.2718C18.3271 5.83907 17.9763 5.48828 17.5436 5.48828Z"
          fill="black"/>
    <path d="M11.278 12.5391H10.4945C10.0617 12.5391 9.71094 12.8899 9.71094 13.3226V15.6731C9.71094 16.1059 10.0617 16.4567 10.4945 16.4567H11.278C11.7107 16.4567 12.0615 16.1059 12.0615 15.6731V13.3226C12.0615 12.8899 11.7107 12.5391 11.278 12.5391Z"
          fill="black"/>
    <path d="M15.5827 19.5898H14.7991C14.3664 19.5898 14.0156 19.9406 14.0156 20.3734V22.7239C14.0156 23.1566 14.3664 23.5074 14.7991 23.5074H15.5827C16.0154 23.5074 16.3662 23.1566 16.3662 22.7239V20.3734C16.3662 19.9406 16.0154 19.5898 15.5827 19.5898Z"
          fill="black"/>
    <path d="M22.6352 6.66406H19.1094V8.2311H22.6352C22.7391 8.2311 22.8388 8.18982 22.9122 8.11635C22.9857 8.04289 23.027 7.94324 23.027 7.83934V7.05582C23.027 6.95192 22.9857 6.85228 22.9122 6.77881C22.8388 6.70534 22.7391 6.66406 22.6352 6.66406Z"
          fill="black"/>
    <path d="M5.39957 8.2311H15.1935V6.66406H5.39957C5.29567 6.66406 5.19603 6.70534 5.12256 6.77881C5.04909 6.85228 5.00781 6.95192 5.00781 7.05582V7.83934C5.00781 7.94324 5.04909 8.04289 5.12256 8.11635C5.19603 8.18982 5.29567 8.2311 5.39957 8.2311Z"
          fill="black"/>
    <path d="M22.6377 13.7148H12.8438V15.2819H22.6377C22.7416 15.2819 22.8413 15.2406 22.9147 15.1671C22.9882 15.0937 23.0295 14.994 23.0295 14.8901V14.1066C23.0295 14.0027 22.9882 13.9031 22.9147 13.8296C22.8413 13.7561 22.7416 13.7148 22.6377 13.7148Z"
          fill="black"/>
    <path d="M5.39957 15.2819H8.9254V13.7148H5.39957C5.29567 13.7148 5.19603 13.7561 5.12256 13.8296C5.04909 13.9031 5.00781 14.0027 5.00781 14.1066V14.8901C5.00781 14.994 5.04909 15.0937 5.12256 15.1671C5.19603 15.2406 5.29567 15.2819 5.39957 15.2819Z"
          fill="black"/>
    <path d="M5.00781 21.1574V21.9409C5.00781 22.0448 5.04909 22.1444 5.12256 22.2179C5.19603 22.2914 5.29567 22.3327 5.39957 22.3327H13.2348V20.7656H5.39957C5.29567 20.7656 5.19603 20.8069 5.12256 20.8804C5.04909 20.9538 5.00781 21.0535 5.00781 21.1574Z"
          fill="black"/>
    <path d="M22.6409 20.7656H17.1562V22.3327H22.6409C22.7448 22.3327 22.8444 22.2914 22.9179 22.2179C22.9914 22.1444 23.0326 22.0448 23.0326 21.9409V21.1574C23.0326 21.0535 22.9914 20.9538 22.9179 20.8804C22.8444 20.8069 22.7448 20.7656 22.6409 20.7656Z"
          fill="black"/>
</svg>
