<svg width="32" height="31" viewBox="0 0 32 31" fill="none" xmlns="http://www.w3.org/2000/svg">
    <rect x="0.421875" width="31" height="31" rx="5" fill="white"/>
    <path d="M25.3338 15.4643C25.1122 15.1582 24.8025 14.9189 24.4332 14.7959V5.61768C24.4332 4.86133 23.8176 4.2457 23.0577 4.2457H11.8743C11.8673 4.2457 11.8603 4.24219 11.8532 4.24219C11.7512 4.24219 11.6598 4.28437 11.5964 4.35479L7.44541 8.50234C7.37861 8.56914 7.34336 8.66064 7.34336 8.75566V12.182C6.66094 12.4459 6.17188 13.1072 6.17188 13.8812V24.9272C6.17188 25.9369 6.9915 26.7565 8.00117 26.7565H23.8492C24.8589 26.7565 25.6785 25.9369 25.6785 24.9272V16.5266C25.6785 16.1432 25.5519 15.7703 25.3338 15.4643ZM14.2524 8.40391H21.0877C21.2812 8.40391 21.4395 8.55869 21.4395 8.75566C21.4395 8.94912 21.2812 9.10742 21.0877 9.10742H14.2524C14.059 9.10742 13.9007 8.94912 13.9007 8.75566C13.9007 8.55869 14.059 8.40391 14.2524 8.40391ZM11.5015 5.44531V7.72842C11.5015 8.10127 11.1989 8.40391 10.8261 8.40391H8.54297L11.5015 5.44531ZM24.9749 24.9273C24.9749 25.5465 24.4684 26.053 23.8492 26.053H8.00117C7.37852 26.053 6.87549 25.5465 6.87549 24.9273V13.8812C6.87549 13.262 7.37852 12.759 8.00117 12.759H13.2463C13.6438 12.759 14.0167 12.9736 14.2172 13.3184L14.8961 14.4898C15.2197 15.0527 15.8248 15.401 16.4756 15.401H23.849C24.4611 15.401 24.9747 15.904 24.9747 16.5267V24.9273H24.9749Z"
          fill="black"/>
</svg>
