<svg width="18" height="18" viewBox="0 0 18 18" fill="none" xmlns="http://www.w3.org/2000/svg">
<path d="M7.32507 17.9833C6.82507 17.9833 6.35007 17.7333 6.02507 17.2917L5.02509 15.9583C5.02509 15.9667 4.98342 15.9417 4.96675 15.9417H4.65842C1.80842 15.9417 0.041748 15.1667 0.041748 11.325V7.99167C0.041748 4.48334 2.18342 3.56667 3.98342 3.40834C4.18342 3.38334 4.41676 3.375 4.65842 3.375H9.99175C13.0084 3.375 14.6084 4.97501 14.6084 7.99167V11.325C14.6084 11.5667 14.6001 11.8 14.5667 12.025C14.4167 13.8 13.5001 15.9417 9.99175 15.9417H9.65842L8.62508 17.2917C8.30008 17.7333 7.82508 17.9833 7.32507 17.9833ZM4.65842 4.625C4.46676 4.625 4.28342 4.63333 4.10842 4.65C2.17508 4.81667 1.29175 5.87501 1.29175 7.99167V11.325C1.29175 14.1833 2.17509 14.6917 4.65842 14.6917H4.99175C5.36675 14.6917 5.79174 14.9 6.02507 15.2L7.02508 16.5417C7.20842 16.7917 7.44175 16.7917 7.62508 16.5417L8.62508 15.2083C8.86675 14.8833 9.25008 14.6917 9.65842 14.6917H9.99175C12.1084 14.6917 13.1667 13.8 13.3251 11.9C13.3501 11.7 13.3584 11.5167 13.3584 11.325V7.99167C13.3584 5.66668 12.3167 4.625 9.99175 4.625H4.65842Z" fill="#292626"/>
<path d="M7.32528 10.8249C6.85861 10.8249 6.49194 10.4499 6.49194 9.99154C6.49194 9.5332 6.86694 9.1582 7.32528 9.1582C7.78359 9.1582 8.15859 9.5332 8.15859 9.99154C8.15859 10.4499 7.79192 10.8249 7.32528 10.8249Z" fill="#292626"/>
<path d="M9.99178 10.8249C9.52511 10.8249 9.15845 10.4499 9.15845 9.99154C9.15845 9.5332 9.53345 9.1582 9.99178 9.1582C10.4501 9.1582 10.8251 9.5332 10.8251 9.99154C10.8251 10.4499 10.4501 10.8249 9.99178 10.8249Z" fill="#292626"/>
<path d="M4.66659 10.8249C4.19992 10.8249 3.83325 10.4499 3.83325 9.99154C3.83325 9.5332 4.20825 9.1582 4.66659 9.1582C5.12492 9.1582 5.49992 9.5332 5.49992 9.99154C5.49992 10.4499 5.12492 10.8249 4.66659 10.8249Z" fill="#292626"/>
<path d="M13.9502 12.5753C13.7835 12.5753 13.6168 12.5087 13.5002 12.3837C13.3668 12.2503 13.3085 12.0587 13.3335 11.8753C13.3585 11.7003 13.3668 11.517 13.3668 11.3253V7.99199C13.3668 5.667 12.3252 4.62533 10.0002 4.62533H4.66685C4.47518 4.62533 4.29187 4.63366 4.11687 4.65033C3.93354 4.67533 3.74186 4.60865 3.60852 4.48365C3.47519 4.35032 3.40018 4.167 3.41685 3.98367C3.56685 2.18367 4.49185 0.0419922 8.00017 0.0419922H13.3335C16.3502 0.0419922 17.9502 1.642 17.9502 4.65867V7.99199C17.9502 11.5003 15.8085 12.417 14.0085 12.5753C13.9835 12.5753 13.9668 12.5753 13.9502 12.5753ZM4.76687 3.37533H9.99175C13.0084 3.37533 14.6084 4.97533 14.6084 7.99199L14.6085 11.217C16.0252 10.867 16.6918 9.82533 16.6918 7.99199V4.65867C16.6918 2.33367 15.6502 1.29199 13.3252 1.29199H7.99183C6.15853 1.29199 5.12521 1.95866 4.76687 3.37533Z" fill="#292626"/>
</svg>
