<svg width="31" height="31" viewBox="0 0 31 31" fill="none" xmlns="http://www.w3.org/2000/svg">
    <g clip-path="url(#clip0_513_4803)">
        <path d="M24.9141 14.4688H14.9453C14.3983 14.4688 13.8737 14.686 13.4869 15.0728C13.1001 15.4596 12.8828 15.9842 12.8828 16.5312V19.9688C12.8828 20.5158 13.1001 21.0404 13.4869 21.4272C13.8737 21.814 14.3983 22.0312 14.9453 22.0312H20.2459L23.8588 24.3309C23.9688 24.4006 24.0963 24.4375 24.2266 24.4375C24.3468 24.4404 24.4656 24.4107 24.5703 24.3516C24.6757 24.2907 24.7631 24.2029 24.8235 24.0972C24.8839 23.9916 24.9152 23.8717 24.9141 23.75V22.0312C25.4611 22.0312 25.9857 21.814 26.3725 21.4272C26.7593 21.0404 26.9766 20.5158 26.9766 19.9688V16.5312C26.9766 15.9842 26.7593 15.4596 26.3725 15.0728C25.9857 14.686 25.4611 14.4688 24.9141 14.4688Z"
              fill="black"/>
        <path d="M7.03906 14.125V15.8438C7.03797 15.9655 7.06922 16.0853 7.12962 16.191C7.19001 16.2967 7.27739 16.3845 7.38281 16.4453C7.48755 16.5044 7.60633 16.5341 7.72656 16.5312C7.85678 16.5313 7.98434 16.4943 8.09437 16.4247L11.7072 14.125H17.0078C17.5548 14.125 18.0794 13.9077 18.4662 13.5209C18.853 13.1341 19.0703 12.6095 19.0703 12.0625V8.625C19.0703 8.07799 18.853 7.55339 18.4662 7.16659C18.0794 6.7798 17.5548 6.5625 17.0078 6.5625H7.03906C6.49205 6.5625 5.96745 6.7798 5.58065 7.16659C5.19386 7.55339 4.97656 8.07799 4.97656 8.625V12.0625C4.97656 12.6095 5.19386 13.1341 5.58065 13.5209C5.96745 13.9077 6.49205 14.125 7.03906 14.125ZM6.35156 8.625C6.35156 8.44266 6.424 8.2678 6.55293 8.13886C6.68186 8.00993 6.85673 7.9375 7.03906 7.9375H17.0078C17.1901 7.9375 17.365 8.00993 17.4939 8.13886C17.6229 8.2678 17.6953 8.44266 17.6953 8.625V12.0625C17.6953 12.2448 17.6229 12.4197 17.4939 12.5486C17.365 12.6776 17.1901 12.75 17.0078 12.75H11.5078C11.3776 12.75 11.25 12.7869 11.14 12.8566L8.41406 14.5925V13.4375C8.41406 13.2552 8.34163 13.0803 8.2127 12.9514C8.08377 12.8224 7.9089 12.75 7.72656 12.75H7.03906C6.85673 12.75 6.68186 12.6776 6.55293 12.5486C6.424 12.4197 6.35156 12.2448 6.35156 12.0625V8.625Z"
              fill="black"/>
    </g>
    <defs>
        <clipPath id="clip0_513_4803">
            <rect width="22" height="22" fill="white" transform="translate(4.97656 4.5)"/>
        </clipPath>
    </defs>
</svg>
