<svg width="20" height="20" viewBox="0 0 20 20" fill="none" xmlns="http://www.w3.org/2000/svg">
<g clip-path="url(#clip0_3559_40966)">
<path d="M19.1303 18.6199H7.82575C7.34568 18.6199 6.95605 18.2305 6.95605 17.7504C6.95605 17.2703 7.34568 16.8809 7.82575 16.8809H19.1303C19.6104 16.8809 19.9999 17.2703 19.9999 17.7504C19.9999 18.2305 19.6104 18.6199 19.1303 18.6199Z" fill="#292626"/>
<path d="M16.7547 3.0945L15.525 1.8648C14.8677 1.20735 13.7224 1.20831 13.0659 1.8648L11.2676 3.6631L14.9564 7.35189L16.7547 5.55359C17.0833 5.22574 17.2642 4.7893 17.2642 4.32404C17.2642 3.85974 17.0833 3.42314 16.7547 3.0945Z" fill="#292626"/>
<path d="M10.0372 4.89355L1.0751 13.8556C1.01778 13.9121 0.977815 13.9843 0.959504 14.0634L0.0116297 18.0851C-0.0230816 18.2313 0.0211833 18.3861 0.127387 18.4921C0.20907 18.5747 0.320369 18.62 0.434216 18.62C0.467335 18.62 0.501251 18.6165 0.53421 18.6087L4.55611 17.6608C4.63445 17.6426 4.70658 17.6025 4.7639 17.5452L13.7259 8.5833L10.0372 4.89355Z" fill="#292626"/>
</g>
<defs>
<clipPath id="clip0_3559_40966">
<rect width="20" height="20" fill="white"/>
</clipPath>
</defs>
</svg>
