<svg width="21" height="20" viewBox="0 0 21 20" fill="none" xmlns="http://www.w3.org/2000/svg">
    <path d="M18.8359 10.832C18.6149 10.832 18.403 10.9198 18.2467 11.0761C18.0904 11.2324 18.0026 11.4444 18.0026 11.6654V15.1762C18.0019 15.792 17.757 16.3823 17.3216 16.8177C16.8862 17.2531 16.2959 17.498 15.6801 17.4987H5.3251C4.70934 17.498 4.11899 17.2531 3.68358 16.8177C3.24817 16.3823 3.00327 15.792 3.0026 15.1762V11.6654C3.0026 11.4444 2.91481 11.2324 2.75853 11.0761C2.60225 10.9198 2.39028 10.832 2.16927 10.832C1.94826 10.832 1.7363 10.9198 1.58002 11.0761C1.42373 11.2324 1.33594 11.4444 1.33594 11.6654V15.1762C1.33704 16.2339 1.75768 17.2479 2.50556 17.9957C3.25343 18.7436 4.26745 19.1643 5.3251 19.1654H15.6801C16.7378 19.1643 17.7518 18.7436 18.4997 17.9957C19.2475 17.2479 19.6682 16.2339 19.6693 15.1762V11.6654C19.6693 11.4444 19.5815 11.2324 19.4252 11.0761C19.2689 10.9198 19.057 10.832 18.8359 10.832Z"
          fill="#979797"/>
    <path d="M6.09195 7.25435L9.66945 3.67685V14.1652C9.66945 14.3862 9.75725 14.5982 9.91353 14.7544C10.0698 14.9107 10.2818 14.9985 10.5028 14.9985C10.7238 14.9985 10.9358 14.9107 11.092 14.7544C11.2483 14.5982 11.3361 14.3862 11.3361 14.1652V3.67685L14.9136 7.25435C15.0708 7.40615 15.2813 7.49015 15.4998 7.48825C15.7183 7.48635 15.9273 7.39871 16.0818 7.2442C16.2363 7.08969 16.3239 6.88068 16.3258 6.66219C16.3277 6.44369 16.2437 6.23319 16.0919 6.07602L11.0919 1.07602C10.9357 0.919794 10.7238 0.832031 10.5028 0.832031C10.2818 0.832031 10.0699 0.919794 9.91361 1.07602L4.91361 6.07602C4.76182 6.23319 4.67782 6.44369 4.67972 6.66219C4.68162 6.88068 4.76926 7.08969 4.92377 7.2442C5.07827 7.39871 5.28728 7.48635 5.50578 7.48825C5.72428 7.49015 5.93478 7.40615 6.09195 7.25435Z"
          fill="#979797"/>
</svg>
