<svg width="46" height="47" viewBox="0 0 46 47" fill="none" xmlns="http://www.w3.org/2000/svg">
    <rect y="0.5" width="46" height="46" rx="10" fill="#F4F4F4"/>
    <path fill-rule="evenodd" clip-rule="evenodd"
          d="M11.4375 16C11.4375 13.7563 13.2563 11.9375 15.5 11.9375H25.5C26.0178 11.9375 26.4375 11.5178 26.4375 11C26.4375 10.4822 26.0178 10.0625 25.5 10.0625H15.5C12.2208 10.0625 9.5625 12.7208 9.5625 16V31C9.5625 34.2793 12.2208 36.9375 15.5 36.9375H30.5C33.7793 36.9375 36.4375 34.2793 36.4375 31V21C36.4375 20.4822 36.0178 20.0625 35.5 20.0625C34.9823 20.0625 34.5625 20.4822 34.5625 21V25.3864C34.5061 25.3413 34.4475 25.2984 34.3868 25.2579L31.4106 23.2738C29.4275 21.9516 26.7869 22.2131 25.1015 23.8985L20.8985 28.1015C19.2131 29.7869 16.5725 30.0484 14.5894 28.7263L11.4375 26.625V16ZM32.6875 11C32.6875 10.4822 32.2678 10.0625 31.75 10.0625C31.2323 10.0625 30.8125 10.4822 30.8125 11V13.8125H28C27.4823 13.8125 27.0625 14.2322 27.0625 14.75C27.0625 15.2678 27.4823 15.6875 28 15.6875H30.8125V18.5C30.8125 19.0178 31.2323 19.4375 31.75 19.4375C32.2678 19.4375 32.6875 19.0178 32.6875 18.5V15.6875H35.5C36.0178 15.6875 36.4375 15.2678 36.4375 14.75C36.4375 14.2322 36.0178 13.8125 35.5 13.8125H32.6875V11ZM18.625 22.25C20.3509 22.25 21.75 20.8509 21.75 19.125C21.75 17.3991 20.3509 16 18.625 16C16.8991 16 15.5 17.3991 15.5 19.125C15.5 20.8509 16.8991 22.25 18.625 22.25Z"
          fill="black"/>
</svg>
