<svg width="35" height="35" viewBox="0 0 35 35" fill="none" xmlns="http://www.w3.org/2000/svg">
<rect x="0.133789" width="34" height="34.25" rx="10" fill="#EAEAEA"/>
<path d="M27.1338 10.9238C26.39 11.25 25.5975 11.4662 24.7713 11.5712C25.6213 11.0638 26.27 10.2662 26.575 9.305C25.7825 9.7775 24.9075 10.1113 23.975 10.2975C23.2225 9.49625 22.15 9 20.98 9C18.71 9 16.8825 10.8425 16.8825 13.1013C16.8825 13.4262 16.91 13.7387 16.9775 14.0362C13.5688 13.87 10.5525 12.2363 8.52629 9.7475C8.17254 10.3613 7.96504 11.0638 7.96504 11.82C7.96504 13.24 8.69629 14.4987 9.78629 15.2275C9.12754 15.215 8.48129 15.0238 7.93379 14.7225C7.93379 14.735 7.93379 14.7512 7.93379 14.7675C7.93379 16.76 9.35504 18.415 11.2188 18.7962C10.885 18.8875 10.5213 18.9312 10.1438 18.9312C9.88129 18.9312 9.61629 18.9163 9.36754 18.8612C9.89879 20.485 11.4063 21.6788 13.1988 21.7175C11.8038 22.8088 10.0325 23.4662 8.11504 23.4662C7.77879 23.4662 7.45629 23.4513 7.13379 23.41C8.95004 24.5813 11.1025 25.25 13.4238 25.25C20.9688 25.25 25.0938 19 25.0938 13.5825C25.0938 13.4012 25.0875 13.2263 25.0788 13.0525C25.8925 12.475 26.5763 11.7538 27.1338 10.9238Z" fill="#03A9F4"/>
</svg>
