<svg width="35" height="34" viewBox="0 0 35 34" fill="none" xmlns="http://www.w3.org/2000/svg">
<rect x="0.133789" width="34" height="34" rx="10" fill="#EAEAEA"/>
<g clip-path="url(#clip0_2859_30931)">
<path d="M17.1363 7H17.1313C11.6175 7 7.13379 11.485 7.13379 17C7.13379 19.1875 7.83879 21.215 9.03754 22.8612L7.79129 26.5763L11.635 25.3475C13.2163 26.395 15.1025 27 17.1363 27C22.65 27 27.1338 22.5138 27.1338 17C27.1338 11.4863 22.65 7 17.1363 7Z" fill="#4CAF50"/>
<path d="M22.9555 21.1217C22.7142 21.803 21.7567 22.368 20.993 22.533C20.4705 22.6442 19.788 22.733 17.4905 21.7805C14.5517 20.563 12.6592 17.5767 12.5117 17.383C12.3705 17.1892 11.3242 15.8017 11.3242 14.3667C11.3242 12.9317 12.053 12.233 12.3467 11.933C12.588 11.6867 12.9867 11.5742 13.3692 11.5742C13.493 11.5742 13.6042 11.5805 13.7042 11.5855C13.998 11.598 14.1455 11.6155 14.3392 12.0792C14.5805 12.6605 15.168 14.0955 15.238 14.243C15.3092 14.3905 15.3805 14.5905 15.2805 14.7842C15.1867 14.9842 15.1042 15.073 14.9567 15.243C14.8092 15.413 14.6692 15.543 14.5217 15.7255C14.3867 15.8842 14.2342 16.0542 14.4042 16.348C14.5742 16.6355 15.1617 17.5942 16.0267 18.3642C17.143 19.358 18.048 19.6755 18.3717 19.8105C18.613 19.9105 18.9005 19.8867 19.0767 19.6992C19.3005 19.458 19.5767 19.058 19.858 18.6642C20.058 18.3817 20.3105 18.3467 20.5755 18.4467C20.8455 18.5405 22.2742 19.2467 22.568 19.393C22.8617 19.5405 23.0555 19.6105 23.1267 19.7342C23.1967 19.858 23.1967 20.4392 22.9555 21.1217Z" fill="#292626"/>
</g>
<defs>
<clipPath id="clip0_2859_30931">
<rect width="20" height="20" fill="white" transform="translate(7.13379 7)"/>
</clipPath>
</defs>
</svg>
