<svg width="35" height="34" viewBox="0 0 35 34" fill="none" xmlns="http://www.w3.org/2000/svg">
<rect x="0.133789" width="34" height="34" rx="10" fill="#EAEAEA"/>
<g clip-path="url(#clip0_2859_30940)">
<path d="M27.1288 26.9999L27.1338 26.999V19.664C27.1338 16.0757 26.3613 13.3115 22.1663 13.3115C20.1497 13.3115 18.7963 14.4182 18.2438 15.4674H18.1855V13.6465H14.208V26.999H18.3497V20.3874C18.3497 18.6465 18.6797 16.9632 20.8355 16.9632C22.9597 16.9632 22.9913 18.9499 22.9913 20.499V26.9999H27.1288Z" fill="#0077B5"/>
<path d="M7.46387 13.6475H11.6105V27H7.46387V13.6475Z" fill="#0077B5"/>
<path d="M9.53546 7C8.20962 7 7.13379 8.07583 7.13379 9.40167C7.13379 10.7275 8.20962 11.8258 9.53546 11.8258C10.8613 11.8258 11.9371 10.7275 11.9371 9.40167C11.9363 8.07583 10.8605 7 9.53546 7Z" fill="#0077B5"/>
</g>
<defs>
<clipPath id="clip0_2859_30940">
<rect width="20" height="20" fill="white" transform="translate(7.13379 7)"/>
</clipPath>
</defs>
</svg>
