<svg width="35" height="34" viewBox="0 0 35 34" fill="none" xmlns="http://www.w3.org/2000/svg">
<rect x="0.133789" width="34" height="34" rx="10" fill="#EAEAEA"/>
<g clip-path="url(#clip0_2859_30935)">
<path d="M27.0737 12.8771C27.025 11.8126 26.8559 11.0857 26.6087 10.4497C26.3577 9.78244 25.9641 9.17804 25.4553 8.67847C24.9559 8.16974 24.3513 7.77591 23.6841 7.52475C23.0479 7.27771 22.3212 7.1088 21.2567 7.06042C20.1903 7.0116 19.8495 7 17.1338 7C14.418 7 14.0773 7.0116 13.0109 7.06012C11.9464 7.1088 11.2196 7.27786 10.5835 7.52505C9.91623 7.77606 9.31183 8.16974 8.81226 8.67847C8.30353 9.17789 7.9097 9.78229 7.65854 10.4496C7.4115 11.0857 7.24258 11.8126 7.19421 12.8769C7.14539 13.9435 7.13379 14.2841 7.13379 16.9998C7.13379 19.7158 7.14539 20.0565 7.19421 21.1229C7.24274 22.1872 7.4118 22.9142 7.659 23.5503C7.91 24.2174 8.30368 24.822 8.81241 25.3214C9.31183 25.8301 9.91638 26.2238 10.5836 26.4748C11.2196 26.7221 11.9466 26.8911 13.011 26.9397C14.0776 26.9884 14.4182 26.9998 17.1339 26.9998C19.8497 26.9998 20.1904 26.9884 21.2569 26.9397C22.3213 26.8911 23.0481 26.7221 23.6842 26.4748C25.0275 25.9554 26.0893 24.8935 26.6087 23.5503C26.8561 22.9142 27.025 22.1872 27.0737 21.1229C27.1222 20.0563 27.1338 19.7158 27.1338 17C27.1338 14.2841 27.1222 13.9435 27.0737 12.8771ZM25.2736 21.041C25.2292 22.016 25.0662 22.5455 24.9294 22.8978C24.5929 23.77 23.9037 24.4593 23.0315 24.7957C22.6791 24.9326 22.1497 25.0956 21.1746 25.14C20.1204 25.1882 19.8041 25.1982 17.1338 25.1982C14.4633 25.1982 14.1472 25.1882 13.0928 25.14C12.1179 25.0956 11.5884 24.9326 11.236 24.7957C10.8017 24.6353 10.4088 24.3798 10.0862 24.0476C9.75403 23.725 9.49844 23.3322 9.33807 22.8978C9.2012 22.5455 9.03824 22.016 8.99384 21.041C8.94577 19.9866 8.93555 19.6703 8.93555 17.0002C8.93555 14.3299 8.94577 14.0137 8.99384 12.9592C9.03839 11.9841 9.2012 11.4547 9.33807 11.1023C9.49844 10.6679 9.75418 10.275 10.0862 9.95242C10.4088 9.62024 10.8017 9.36465 11.2361 9.20444C11.5884 9.06741 12.1179 8.9046 13.093 8.86005C14.1473 8.81198 14.4637 8.80176 17.1338 8.80176H17.1336C19.8038 8.80176 20.1201 8.81198 21.1746 8.8602C22.1497 8.9046 22.679 9.06757 23.0315 9.20444C23.4657 9.36481 23.8586 9.62039 24.1812 9.95242C24.5134 10.275 24.769 10.6679 24.9292 11.1023C25.0662 11.4547 25.2292 11.9841 25.2736 12.9592C25.3217 14.0135 25.3319 14.3299 25.3319 17C25.3319 19.6703 25.3218 19.9865 25.2736 21.041Z" fill="url(#paint0_linear_2859_30935)"/>
<path d="M17.1341 11.8652C14.2981 11.8652 11.999 14.1644 11.999 17.0004C11.999 19.8364 14.2981 22.1355 17.1341 22.1355C19.9702 22.1355 22.2693 19.8364 22.2693 17.0004C22.2693 14.1644 19.9702 11.8652 17.1341 11.8652ZM17.1341 20.3337C15.2932 20.3336 13.8008 18.8412 13.8009 17.0003C13.8009 15.1595 15.2932 13.667 17.1342 13.667C18.9752 13.6671 20.4675 15.1595 20.4675 17.0003C20.4675 18.8412 18.975 20.3337 17.1341 20.3337Z" fill="url(#paint1_linear_2859_30935)"/>
<path d="M23.6715 11.662C23.6715 12.3247 23.1343 12.862 22.4716 12.862C21.8087 12.862 21.2715 12.3247 21.2715 11.662C21.2715 10.9992 21.8087 10.4619 22.4716 10.4619C23.1343 10.4619 23.6715 10.9992 23.6715 11.662Z" fill="url(#paint2_linear_2859_30935)"/>
</g>
<defs>
<linearGradient id="paint0_linear_2859_30935" x1="8.81215" y1="25.3215" x2="25.4554" y2="8.6782" gradientUnits="userSpaceOnUse">
<stop stop-color="#FFD600"/>
<stop offset="0.5" stop-color="#FF0100"/>
<stop offset="1" stop-color="#D800B9"/>
</linearGradient>
<linearGradient id="paint1_linear_2859_30935" x1="13.5031" y1="20.6314" x2="20.7652" y2="13.3693" gradientUnits="userSpaceOnUse">
<stop stop-color="#FF6400"/>
<stop offset="0.5" stop-color="#FF0100"/>
<stop offset="1" stop-color="#FD0056"/>
</linearGradient>
<linearGradient id="paint2_linear_2859_30935" x1="21.623" y1="12.5105" x2="23.32" y2="10.8134" gradientUnits="userSpaceOnUse">
<stop stop-color="#F30072"/>
<stop offset="1" stop-color="#E50097"/>
</linearGradient>
<clipPath id="clip0_2859_30935">
<rect width="20" height="20" fill="white" transform="translate(7.13379 7)"/>
</clipPath>
</defs>
</svg>
