<svg width="34" height="34" viewBox="0 0 34 34" fill="none" xmlns="http://www.w3.org/2000/svg">
<rect x="0.133789" width="33.7316" height="34" rx="10" fill="#EAEAEA"/>
<path d="M14.8479 18.1625C14.7773 18.1625 13.2952 18.1629 12.6117 18.1623C12.2598 18.162 12.1342 18.0356 12.1342 17.6814C12.1338 16.7718 12.1335 15.8621 12.1342 14.9524C12.1344 14.6028 12.2672 14.4693 12.6146 14.4691C13.2981 14.4687 14.7721 14.4689 14.8479 14.4689C14.8479 14.4066 14.8477 13.0932 14.8479 12.4884C14.8484 11.5943 15.0079 10.7384 15.4622 9.95471C15.9273 9.15259 16.6041 8.60314 17.4714 8.28544C18.027 8.08181 18.6036 8.00059 19.1931 8.00014C19.9307 7.99969 20.6682 8.00036 21.406 8.00171C21.723 8.00216 21.8637 8.14234 21.8643 8.46161C21.8657 9.31729 21.8657 10.173 21.8643 11.0284C21.8639 11.3511 21.7291 11.4807 21.4049 11.4843C20.8003 11.4908 20.1953 11.4867 19.5914 11.511C18.9814 11.511 18.6606 11.8089 18.6606 12.4403C18.6459 13.1081 18.6545 13.7766 18.6545 14.4687C18.7116 14.4687 20.4475 14.4684 21.2589 14.4687C21.6274 14.4687 21.7534 14.5953 21.7534 14.9659C21.7534 15.8706 21.7532 16.7756 21.7525 17.6803C21.7523 18.0455 21.6339 18.162 21.2631 18.1623C20.4518 18.1627 18.7227 18.1625 18.6471 18.1625V25.4851C18.6471 25.8755 18.5242 25.9999 18.139 25.9999C17.1999 25.9999 16.2605 26.0001 15.3213 25.9999C14.9809 25.9999 14.8482 25.8676 14.8482 25.5272C14.8479 23.1424 14.8479 18.2462 14.8479 18.1625Z" fill="#3D6AD6"/>
</svg>
