<svg width="44" height="44" viewBox="0 0 44 44" fill="none" xmlns="http://www.w3.org/2000/svg">
    <g filter="url(#filter0_d_513_5166)">
        <rect x="4" width="36" height="36" rx="5" fill="white"/>
        <g filter="url(#filter1_d_513_5166)">
            <path d="M21.1875 14.3125C18.9474 14.3125 17.125 16.1349 17.125 18.375C17.125 20.6151 18.9474 22.4375 21.1875 22.4375C23.4276 22.4375 25.25 20.6151 25.25 18.375C25.25 16.1349 23.4276 14.3125 21.1875 14.3125ZM23.625 19.1875C23.1757 19.1875 22.8125 18.8235 22.8125 18.375C22.8125 17.4788 22.0837 16.75 21.1875 16.75C20.7382 16.75 20.375 16.386 20.375 15.9375C20.375 15.489 20.7382 15.125 21.1875 15.125C22.9799 15.125 24.4375 16.5826 24.4375 18.375C24.4375 18.8235 24.0743 19.1875 23.625 19.1875Z"
                  fill="black"/>
            <path d="M25.6816 9.4375L25.2266 7.61506C25.1356 7.25431 24.8114 7 24.4384 7H17.9384C17.5655 7 17.2413 7.25431 17.1503 7.61506L16.6953 9.4375H25.6816Z"
                  fill="black"/>
            <path d="M30.9375 10.25H25.8838H16.4913H11.4375C10.0936 10.25 9 11.3436 9 12.6875V24.0625C9 25.4064 10.0936 26.5 11.4375 26.5H30.9375C32.2814 26.5 33.375 25.4064 33.375 24.0625V12.6875C33.375 11.3436 32.2814 10.25 30.9375 10.25ZM13.0625 15.125C12.6132 15.125 12.25 14.761 12.25 14.3125C12.25 13.864 12.6132 13.5 13.0625 13.5C13.5118 13.5 13.875 13.864 13.875 14.3125C13.875 14.761 13.5118 15.125 13.0625 15.125ZM21.1875 24.0625C18.0521 24.0625 15.5 21.5112 15.5 18.375C15.5 15.2387 18.0521 12.6875 21.1875 12.6875C24.3229 12.6875 26.875 15.2387 26.875 18.375C26.875 21.5112 24.3229 24.0625 21.1875 24.0625Z"
                  fill="black"/>
        </g>
    </g>
    <defs>
        <filter id="filter0_d_513_5166" x="0" y="0" width="44" height="44" filterUnits="userSpaceOnUse"
                color-interpolation-filters="sRGB">
            <feFlood flood-opacity="0" result="BackgroundImageFix"/>
            <feColorMatrix in="SourceAlpha" type="matrix" values="0 0 0 0 0 0 0 0 0 0 0 0 0 0 0 0 0 0 127 0"
                           result="hardAlpha"/>
            <feOffset dy="4"/>
            <feGaussianBlur stdDeviation="2"/>
            <feComposite in2="hardAlpha" operator="out"/>
            <feColorMatrix type="matrix" values="0 0 0 0 0 0 0 0 0 0 0 0 0 0 0 0 0 0 0.25 0"/>
            <feBlend mode="normal" in2="BackgroundImageFix" result="effect1_dropShadow_513_5166"/>
            <feBlend mode="normal" in="SourceGraphic" in2="effect1_dropShadow_513_5166" result="shape"/>
        </filter>
        <filter id="filter1_d_513_5166" x="5" y="7" width="32.375" height="27.5" filterUnits="userSpaceOnUse"
                color-interpolation-filters="sRGB">
            <feFlood flood-opacity="0" result="BackgroundImageFix"/>
            <feColorMatrix in="SourceAlpha" type="matrix" values="0 0 0 0 0 0 0 0 0 0 0 0 0 0 0 0 0 0 127 0"
                           result="hardAlpha"/>
            <feOffset dy="4"/>
            <feGaussianBlur stdDeviation="2"/>
            <feComposite in2="hardAlpha" operator="out"/>
            <feColorMatrix type="matrix" values="0 0 0 0 0 0 0 0 0 0 0 0 0 0 0 0 0 0 0.25 0"/>
            <feBlend mode="normal" in2="BackgroundImageFix" result="effect1_dropShadow_513_5166"/>
            <feBlend mode="normal" in="SourceGraphic" in2="effect1_dropShadow_513_5166" result="shape"/>
        </filter>
    </defs>
</svg>
