<svg width="44" height="44" viewBox="0 0 44 44" fill="none" xmlns="http://www.w3.org/2000/svg">
    <g filter="url(#filter0_d_513_5129)">
        <g clip-path="url(#clip0_513_5129)">
            <rect x="4" width="36" height="36" rx="5" fill="white"/>
            <g filter="url(#filter1_d_513_5129)">
                <path d="M31.3768 12.6188H15.0677L30.6471 8.08715C30.9829 7.9895 31.1773 7.63651 31.0792 7.30058L30.2524 4.45732C30.155 4.12145 29.8021 3.92771 29.4662 4.02524L10.4574 9.55453C10.1216 9.65217 9.9277 10.0051 10.0252 10.341L10.8523 13.1842C10.8725 13.2538 10.9061 13.316 10.9461 13.3719V16.2143C10.9461 16.5641 11.2306 16.8488 11.5807 16.8488H12.0034V29.4926C12.0034 29.773 12.2311 30 12.511 30H30.4459C30.7258 30 30.9534 29.7727 30.9534 29.4926V16.8488H31.3761C31.7258 16.8488 32.0107 16.5641 32.0107 16.2143V13.2533C32.0114 12.9034 31.7265 12.6188 31.3768 12.6188ZM22.9472 12.8726H24.9781L22.9537 16.595H20.9232L22.9472 12.8726ZM17.4485 12.8726H19.4791L17.4546 16.595H15.4241L17.4485 12.8726ZM26.4854 5.15664L29.4686 8.16531L27.5196 8.73256L24.5356 5.72366L26.4854 5.15664ZM21.4489 6.62149L24.4326 9.63033L22.483 10.1974L19.4988 7.18863L21.4489 6.62149ZM10.7085 11.7815L10.269 10.2702C10.2104 10.0686 10.327 9.85694 10.5282 9.79844L11.0917 9.63476L14.0509 12.6191H11.5807C11.5677 12.6191 11.5554 12.6224 11.543 12.623L10.7085 11.7815ZM13.2864 12.8726L12.1258 13.2103L12.0301 13.1141L12.1612 12.8726H13.2864ZM12.1674 16.595H11.5809C11.3709 16.595 11.1999 16.4243 11.1999 16.2143V14.6401L11.7794 13.5753L14.191 12.8735L12.1674 16.595ZM16.1683 8.15761L19.1521 11.1663L17.2024 11.7335L14.2186 8.72463L16.1683 8.15761ZM28.5085 23.966H14.3811V23.1473H28.5085V23.966ZM28.5085 20.4971H14.3811V19.6789H28.5085V20.4971ZM28.1988 16.595H26.1682L28.1922 12.8726H30.2232L28.1988 16.595Z"
                      fill="black"/>
            </g>
        </g>
    </g>
    <defs>
        <filter id="filter0_d_513_5129" x="0" y="0" width="44" height="44" filterUnits="userSpaceOnUse"
                color-interpolation-filters="sRGB">
            <feFlood flood-opacity="0" result="BackgroundImageFix"/>
            <feColorMatrix in="SourceAlpha" type="matrix" values="0 0 0 0 0 0 0 0 0 0 0 0 0 0 0 0 0 0 127 0"
                           result="hardAlpha"/>
            <feOffset dy="4"/>
            <feGaussianBlur stdDeviation="2"/>
            <feComposite in2="hardAlpha" operator="out"/>
            <feColorMatrix type="matrix" values="0 0 0 0 0 0 0 0 0 0 0 0 0 0 0 0 0 0 0.25 0"/>
            <feBlend mode="normal" in2="BackgroundImageFix" result="effect1_dropShadow_513_5129"/>
            <feBlend mode="normal" in="SourceGraphic" in2="effect1_dropShadow_513_5129" result="shape"/>
        </filter>
        <filter id="filter1_d_513_5129" x="6" y="4" width="30.0078" height="34" filterUnits="userSpaceOnUse"
                color-interpolation-filters="sRGB">
            <feFlood flood-opacity="0" result="BackgroundImageFix"/>
            <feColorMatrix in="SourceAlpha" type="matrix" values="0 0 0 0 0 0 0 0 0 0 0 0 0 0 0 0 0 0 127 0"
                           result="hardAlpha"/>
            <feOffset dy="4"/>
            <feGaussianBlur stdDeviation="2"/>
            <feComposite in2="hardAlpha" operator="out"/>
            <feColorMatrix type="matrix" values="0 0 0 0 0 0 0 0 0 0 0 0 0 0 0 0 0 0 0.25 0"/>
            <feBlend mode="normal" in2="BackgroundImageFix" result="effect1_dropShadow_513_5129"/>
            <feBlend mode="normal" in="SourceGraphic" in2="effect1_dropShadow_513_5129" result="shape"/>
        </filter>
        <clipPath id="clip0_513_5129">
            <rect x="4" width="36" height="36" rx="5" fill="white"/>
        </clipPath>
    </defs>
</svg>
