<svg width="44" height="44" viewBox="0 0 44 44" fill="none" xmlns="http://www.w3.org/2000/svg">
    <g filter="url(#filter0_d_513_5130)">
        <g clip-path="url(#clip0_513_5130)">
            <rect x="4" width="36" height="36" rx="5" fill="white"/>
            <g filter="url(#filter1_d_513_5130)">
                <path d="M24.4395 26.7206V27.4802C24.4395 28.0848 23.9955 28.5877 23.4177 28.6733L23.2304 29.3634C23.1288 29.7379 22.7918 30 22.4012 30H20.5449C20.1543 30 19.8173 29.7379 19.7156 29.3634L19.5337 28.6733C18.9506 28.5823 18.5066 28.0848 18.5066 27.4749V26.7152C18.5066 26.3086 18.8329 25.9823 19.2395 25.9823H23.7066C24.1132 25.9877 24.4395 26.314 24.4395 26.7206ZM27.8794 16.4811C27.8794 18.2091 27.1946 19.7765 26.0819 20.9267C25.2366 21.8041 24.6909 22.9222 24.5091 24.1152C24.4288 24.6288 23.9848 25.0086 23.4605 25.0086H19.4856C18.9667 25.0086 18.5173 24.6342 18.4424 24.1206C18.2551 22.9276 17.7041 21.7934 16.8588 20.9214C15.7675 19.7872 15.0881 18.2465 15.072 16.5506C15.0346 12.9877 17.87 10.1041 21.4329 10.0774C24.9905 10.0506 27.8794 12.9288 27.8794 16.4811ZM22.1979 12.6025C22.1979 12.2066 21.877 11.8802 21.4757 11.8802C18.9292 11.8802 16.8535 13.9506 16.8535 16.5025C16.8535 16.8984 17.1745 17.2247 17.5757 17.2247C17.9716 17.2247 18.2979 16.9037 18.2979 16.5025C18.2979 14.7477 19.7263 13.3247 21.4757 13.3247C21.877 13.3247 22.1979 13.0037 22.1979 12.6025ZM21.4757 7.9749C21.8716 7.9749 22.1979 7.65391 22.1979 7.25268V4.72222C22.1979 4.32634 21.877 4 21.4757 4C21.0745 4 20.7535 4.32099 20.7535 4.72222V7.25268C20.7535 7.65391 21.0798 7.9749 21.4757 7.9749ZM12.9749 16.4757C12.9749 16.0798 12.6539 15.7535 12.2527 15.7535H9.72222C9.32634 15.7535 9 16.0745 9 16.4757C9 16.8716 9.32099 17.1979 9.72222 17.1979H12.2527C12.6539 17.1979 12.9749 16.877 12.9749 16.4757ZM33.2292 15.7535H30.6988C30.3029 15.7535 29.9765 16.0745 29.9765 16.4757C29.9765 16.8716 30.2975 17.1979 30.6988 17.1979H33.2292C33.6251 17.1979 33.9514 16.877 33.9514 16.4757C33.9514 16.0798 33.6304 15.7535 33.2292 15.7535ZM14.4461 22.4889L12.6539 24.2811C12.3704 24.5646 12.3704 25.0193 12.6539 25.3029C12.793 25.442 12.9802 25.5115 13.1621 25.5115C13.344 25.5115 13.5313 25.442 13.6704 25.3029L15.4626 23.5107C15.7461 23.2272 15.7461 22.7724 15.4626 22.4889C15.1844 22.2054 14.7243 22.2054 14.4461 22.4889ZM27.9971 10.6765C28.179 10.6765 28.3663 10.607 28.5053 10.4679L30.2975 8.67572C30.5811 8.39218 30.5811 7.93745 30.2975 7.65391C30.014 7.37037 29.5593 7.37037 29.2757 7.65391L27.4835 9.44609C27.2 9.72963 27.2 10.1844 27.4835 10.4679C27.628 10.607 27.8099 10.6765 27.9971 10.6765ZM14.4461 10.4626C14.5852 10.6016 14.7724 10.6712 14.9543 10.6712C15.1362 10.6712 15.3235 10.6016 15.4626 10.4626C15.7461 10.179 15.7461 9.72428 15.4626 9.44074L13.6704 7.64856C13.3868 7.36502 12.9321 7.36502 12.6486 7.64856C12.365 7.9321 12.365 8.38683 12.6486 8.67037L14.4461 10.4626ZM28.5053 22.4889C28.2218 22.2054 27.7671 22.2054 27.4835 22.4889C27.2 22.7724 27.2 23.2272 27.4835 23.5107L29.2757 25.3029C29.4148 25.442 29.6021 25.5115 29.7839 25.5115C29.9658 25.5115 30.1531 25.442 30.2922 25.3029C30.5757 25.0193 30.5757 24.5646 30.2922 24.2811L28.5053 22.4889Z"
                      fill="black"/>
            </g>
        </g>
    </g>
    <defs>
        <filter id="filter0_d_513_5130" x="0" y="0" width="44" height="44" filterUnits="userSpaceOnUse"
                color-interpolation-filters="sRGB">
            <feFlood flood-opacity="0" result="BackgroundImageFix"/>
            <feColorMatrix in="SourceAlpha" type="matrix" values="0 0 0 0 0 0 0 0 0 0 0 0 0 0 0 0 0 0 127 0"
                           result="hardAlpha"/>
            <feOffset dy="4"/>
            <feGaussianBlur stdDeviation="2"/>
            <feComposite in2="hardAlpha" operator="out"/>
            <feColorMatrix type="matrix" values="0 0 0 0 0 0 0 0 0 0 0 0 0 0 0 0 0 0 0.25 0"/>
            <feBlend mode="normal" in2="BackgroundImageFix" result="effect1_dropShadow_513_5130"/>
            <feBlend mode="normal" in="SourceGraphic" in2="effect1_dropShadow_513_5130" result="shape"/>
        </filter>
        <filter id="filter1_d_513_5130" x="5" y="4" width="32.9531" height="34" filterUnits="userSpaceOnUse"
                color-interpolation-filters="sRGB">
            <feFlood flood-opacity="0" result="BackgroundImageFix"/>
            <feColorMatrix in="SourceAlpha" type="matrix" values="0 0 0 0 0 0 0 0 0 0 0 0 0 0 0 0 0 0 127 0"
                           result="hardAlpha"/>
            <feOffset dy="4"/>
            <feGaussianBlur stdDeviation="2"/>
            <feComposite in2="hardAlpha" operator="out"/>
            <feColorMatrix type="matrix" values="0 0 0 0 0 0 0 0 0 0 0 0 0 0 0 0 0 0 0.25 0"/>
            <feBlend mode="normal" in2="BackgroundImageFix" result="effect1_dropShadow_513_5130"/>
            <feBlend mode="normal" in="SourceGraphic" in2="effect1_dropShadow_513_5130" result="shape"/>
        </filter>
        <clipPath id="clip0_513_5130">
            <rect x="4" width="36" height="36" rx="5" fill="white"/>
        </clipPath>
    </defs>
</svg>
