<svg width="31" height="32" viewBox="0 0 31 32" fill="none" xmlns="http://www.w3.org/2000/svg">
    <g filter="url(#filter0_d_513_5219)">
        <path d="M15.625 19.3984C17.0713 19.3984 18.4851 18.9696 19.6876 18.1661C20.8901 17.3626 21.8274 16.2205 22.3809 14.8843C22.9343 13.5481 23.0792 12.0778 22.797 10.6593C22.5148 9.24086 21.8184 7.93789 20.7957 6.91522C19.7731 5.89255 18.4701 5.1961 17.0516 4.91395C15.6331 4.63179 14.1628 4.77661 12.8266 5.33007C11.4904 5.88354 10.3484 6.8208 9.54488 8.02333C8.74137 9.22587 8.3125 10.6397 8.3125 12.0859C8.31542 14.0244 9.08678 15.8827 10.4575 17.2534C11.8282 18.6242 13.6865 19.3955 15.625 19.3984ZM14.8125 9.64844C14.8125 9.43295 14.8981 9.22629 15.0505 9.07392C15.2029 8.92154 15.4095 8.83594 15.625 8.83594C15.8405 8.83594 16.0472 8.92154 16.1995 9.07392C16.3519 9.22629 16.4375 9.43295 16.4375 9.64844V11.7447L17.9244 13.2316C18.0763 13.3848 18.1614 13.592 18.161 13.8078C18.1605 14.0235 18.0746 14.2304 17.922 14.383C17.7694 14.5356 17.5626 14.6215 17.3468 14.6219C17.131 14.6224 16.9238 14.5373 16.7706 14.3853L15.0481 12.6628C14.8991 12.5075 14.8148 12.3012 14.8125 12.0859V9.64844Z"
              fill="white"/>
        <path d="M15.624 0.710955C15.4085 0.710955 15.2018 0.796558 15.0494 0.948931C14.8971 1.1013 14.8115 1.30797 14.8115 1.52345C14.8115 1.73894 14.8971 1.94561 15.0494 2.09798C15.2018 2.25035 15.4085 2.33595 15.624 2.33595C17.8985 2.32655 20.1053 3.10939 21.8655 4.55002C23.6257 5.99066 24.8293 7.9992 25.2698 10.2307C25.7102 12.4622 25.3599 14.7774 24.2791 16.7788C23.1983 18.7802 21.4543 20.3428 19.3468 21.1982C17.2392 22.0537 14.8996 22.1487 12.7296 21.4669C10.5596 20.7851 8.69478 19.369 7.45527 17.4618C6.21576 15.5547 5.67895 13.2755 5.93703 11.0156C6.19511 8.75574 7.23198 6.65624 8.86957 5.07765L8.81448 5.49788C8.78646 5.71158 8.84449 5.92765 8.97579 6.09857C9.10709 6.26949 9.30091 6.38125 9.51461 6.40926C9.72831 6.43727 9.94438 6.37925 10.1153 6.24795C10.2862 6.11665 10.398 5.92283 10.426 5.70913L10.7422 3.29227C10.7616 3.08012 10.7002 2.86848 10.5703 2.69962C10.4404 2.53076 10.2516 2.41711 10.0416 2.38137L7.62473 2.06539C7.51747 2.04833 7.40788 2.05295 7.30244 2.07898C7.197 2.105 7.09784 2.1519 7.01084 2.2169C6.92383 2.2819 6.85074 2.36369 6.79588 2.45742C6.74102 2.55116 6.70552 2.65494 6.69146 2.76263C6.6774 2.87032 6.68507 2.97974 6.71403 3.08442C6.74298 3.18909 6.79263 3.2869 6.86003 3.37206C6.92743 3.45722 7.01123 3.528 7.10646 3.58022C7.20168 3.63244 7.30642 3.66504 7.41446 3.67609L7.9204 3.74239C5.98074 5.54226 4.73058 7.96304 4.38585 10.5866C4.04113 13.2101 4.62349 15.8717 6.03235 18.1116C7.44121 20.3514 9.58809 22.0289 12.1022 22.8543C14.6163 23.6796 17.3397 23.6011 19.802 22.6321C22.2643 21.6632 24.3109 19.8647 25.5882 17.5473C26.8656 15.23 27.2936 12.5393 26.7982 9.93997C26.3028 7.34066 24.9151 4.99599 22.8749 3.31094C20.8347 1.62589 18.2701 0.706281 15.624 0.710955Z"
              fill="white"/>
    </g>
    <defs>
        <filter id="filter0_d_513_5219" x="0.289062" y="0.710938" width="30.7109" height="30.7109"
                filterUnits="userSpaceOnUse" color-interpolation-filters="sRGB">
            <feFlood flood-opacity="0" result="BackgroundImageFix"/>
            <feColorMatrix in="SourceAlpha" type="matrix" values="0 0 0 0 0 0 0 0 0 0 0 0 0 0 0 0 0 0 127 0"
                           result="hardAlpha"/>
            <feOffset dy="4"/>
            <feGaussianBlur stdDeviation="2"/>
            <feComposite in2="hardAlpha" operator="out"/>
            <feColorMatrix type="matrix" values="0 0 0 0 0 0 0 0 0 0 0 0 0 0 0 0 0 0 0.2 0"/>
            <feBlend mode="normal" in2="BackgroundImageFix" result="effect1_dropShadow_513_5219"/>
            <feBlend mode="normal" in="SourceGraphic" in2="effect1_dropShadow_513_5219" result="shape"/>
        </filter>
    </defs>
</svg>
