<svg width="23" height="23" viewBox="0 0 23 23" fill="none" xmlns="http://www.w3.org/2000/svg">
<path d="M11.8238 19.0293C13.2375 19.0293 14.6195 18.6101 15.795 17.8247C16.9704 17.0393 17.8866 15.9229 18.4276 14.6168C18.9686 13.3107 19.1102 11.8734 18.8344 10.4869C18.5586 9.1003 17.8778 7.82665 16.8781 6.82699C15.8785 5.82733 14.6048 5.14655 13.2183 4.87075C11.8317 4.59494 10.3945 4.7365 9.08834 5.27751C7.78222 5.81852 6.66586 6.73469 5.88043 7.91017C5.095 9.08565 4.67578 10.4676 4.67578 11.8814C4.67864 13.7763 5.43264 15.5927 6.77253 16.9326C8.11241 18.2725 9.92887 19.0265 11.8238 19.0293ZM11.0295 9.49871C11.0295 9.28807 11.1132 9.08606 11.2622 8.93712C11.4111 8.78817 11.6131 8.7045 11.8238 8.7045C12.0344 8.7045 12.2364 8.78817 12.3854 8.93712C12.5343 9.08606 12.618 9.28807 12.618 9.49871V11.5478L14.0714 13.0012C14.2199 13.151 14.3031 13.3535 14.3027 13.5644C14.3022 13.7754 14.2183 13.9776 14.0691 14.1267C13.9199 14.2759 13.7178 14.3599 13.5068 14.3603C13.2959 14.3607 13.0934 14.2776 12.9436 14.129L11.2599 12.4453C11.1141 12.2934 11.0318 12.0918 11.0295 11.8814V9.49871Z" fill="white"/>
<path d="M11.822 0.762713C11.6114 0.762713 11.4094 0.846389 11.2604 0.995334C11.1115 1.14428 11.0278 1.34629 11.0278 1.55693C11.0278 1.76757 11.1115 1.96958 11.2604 2.11853C11.4094 2.26747 11.6114 2.35115 11.822 2.35115C14.0454 2.34196 16.2026 3.10718 17.9232 4.5154C19.6437 5.92362 20.8203 7.88697 21.2508 10.0683C21.6813 12.2496 21.3389 14.5127 20.2824 16.469C19.2259 18.4254 17.5212 19.9528 15.4611 20.789C13.401 21.6253 11.114 21.7181 8.99282 21.0516C6.87168 20.3852 5.04877 19.0009 3.83715 17.1367C2.62553 15.2725 2.1008 13.0445 2.35308 10.8355C2.60535 8.62649 3.61889 6.57423 5.21963 5.03116L5.16578 5.44193C5.1384 5.65082 5.19512 5.86204 5.32346 6.02911C5.45181 6.19618 5.64127 6.30542 5.85016 6.33281C6.05905 6.36019 6.27026 6.30347 6.43734 6.17512C6.60441 6.04678 6.71365 5.85732 6.74103 5.64843L7.05014 3.28594C7.06905 3.07857 7.00904 2.87169 6.88208 2.70663C6.75512 2.54157 6.57057 2.43048 6.36529 2.39555L4.00281 2.08667C3.89796 2.07 3.79084 2.07452 3.68777 2.09995C3.58469 2.12539 3.48777 2.17123 3.40272 2.23477C3.31767 2.29831 3.24622 2.37826 3.1926 2.46988C3.13898 2.56151 3.10427 2.66295 3.09053 2.76822C3.07679 2.87349 3.08429 2.98045 3.11259 3.08277C3.14089 3.18509 3.18942 3.2807 3.25531 3.36394C3.3212 3.44719 3.4031 3.51638 3.49619 3.56742C3.58927 3.61847 3.69165 3.65033 3.79726 3.66113L4.29182 3.72594C2.3958 5.48532 1.17377 7.85163 0.836801 10.4161C0.499834 12.9807 1.06909 15.5823 2.44625 17.7718C3.82341 19.9613 5.92199 21.601 8.3795 22.4078C10.837 23.2146 13.4991 23.1378 15.906 22.1907C18.313 21.2435 20.3135 19.4855 21.5621 17.2203C22.8108 14.9551 23.2291 12.3249 22.7448 9.78408C22.2606 7.24325 20.9041 4.95133 18.9098 3.3042C16.9155 1.65706 14.4086 0.758144 11.822 0.762713Z" fill="white"/>
</svg>
