<svg width="24" height="24" viewBox="0 0 24 24" fill="none" xmlns="http://www.w3.org/2000/svg">
    <path d="M23.0469 5.52734H21.8828C21.7988 5.27932 21.6996 5.03668 21.5859 4.80078L22.4063 3.98047C22.4794 3.90672 22.5205 3.80703 22.5205 3.70312C22.5205 3.59922 22.4794 3.49953 22.4063 3.42578L20.0117 1.03125C19.9362 0.961548 19.8372 0.922846 19.7344 0.922846C19.6316 0.922846 19.5326 0.961548 19.457 1.03125L18.6367 1.85156C18.4008 1.73786 18.1582 1.63872 17.9102 1.55469V0.390625C17.9102 0.287025 17.869 0.187668 17.7957 0.114411C17.7225 0.041155 17.6231 0 17.5195 0H14.1328C14.0292 0 13.9299 0.041155 13.8566 0.114411C13.7833 0.187668 13.7422 0.287025 13.7422 0.390625V1.55469C13.4942 1.63872 13.2515 1.73786 13.0156 1.85156L12.1953 1.03125C12.1208 0.959298 12.0215 0.91874 11.918 0.917969C11.8146 0.919484 11.7155 0.959935 11.6406 1.03125L9.25 3.42578C9.17682 3.49953 9.13575 3.59922 9.13575 3.70312C9.13575 3.80703 9.17682 3.90672 9.25 3.98047L10.0703 4.80078C9.95366 5.03585 9.85317 5.2786 9.76953 5.52734H8.60547C8.50187 5.52734 8.40251 5.5685 8.32926 5.64176C8.256 5.71501 8.21484 5.81437 8.21484 5.91797V6.22266H6.67969C6.57609 6.22266 6.47673 6.26381 6.40347 6.33707C6.33022 6.41032 6.28906 6.50968 6.28906 6.61328V7.97656C5.98333 8.07967 5.68454 8.20232 5.39453 8.34375L4.43359 7.38281C4.36063 7.31096 4.26256 7.27034 4.16016 7.26953C4.0566 7.2703 3.9573 7.31086 3.88281 7.38281L1.16016 10.1055C1.08753 10.1795 1.04685 10.2791 1.04685 10.3828C1.04685 10.4865 1.08753 10.5861 1.16016 10.6602L2.12109 11.6211C1.97734 11.91 1.85462 12.209 1.75391 12.5156H0.390625C0.287025 12.5156 0.187668 12.5568 0.114411 12.63C0.041155 12.7033 0 12.8027 0 12.9063V16.7578C0 16.8614 0.041155 16.9608 0.114411 17.034C0.187668 17.1073 0.287025 17.1484 0.390625 17.1484H1.75391C1.85532 17.4548 1.97801 17.7537 2.12109 18.043L1.16016 19.0039C1.12384 19.0395 1.09508 19.0821 1.07562 19.1291C1.05615 19.1761 1.04638 19.2265 1.04687 19.2773C1.04636 19.3288 1.05612 19.3798 1.07557 19.4274C1.09502 19.4751 1.12378 19.5183 1.16016 19.5547L3.88281 22.2773C3.95668 22.3488 4.05543 22.3887 4.1582 22.3887C4.26098 22.3887 4.35973 22.3488 4.43359 22.2773L5.39453 21.3164C5.68379 21.4595 5.9827 21.5822 6.28906 21.6836V23.0469C6.28906 23.1505 6.33022 23.2498 6.40347 23.3231C6.47673 23.3963 6.57609 23.4375 6.67969 23.4375H10.5312C10.6348 23.4375 10.7342 23.3963 10.8075 23.3231C10.8807 23.2498 10.9219 23.1505 10.9219 23.0469V21.6836C11.2285 21.5829 11.5275 21.4602 11.8164 21.3164L12.7773 22.2773C12.8511 22.3505 12.9508 22.3916 13.0547 22.3916C13.1586 22.3916 13.2583 22.3505 13.332 22.2773L16.0547 19.5547C16.1266 19.4802 16.1672 19.3809 16.168 19.2773C16.1672 19.1749 16.1265 19.0769 16.0547 19.0039L15.0937 18.043C15.2352 17.753 15.3578 17.4542 15.4609 17.1484H16.8242C16.9278 17.1484 17.0272 17.1073 17.1004 17.034C17.1737 16.9608 17.2148 16.8614 17.2148 16.7578V15.2227H17.5195C17.6231 15.2227 17.7225 15.1815 17.7957 15.1082C17.869 15.035 17.9102 14.9356 17.9102 14.832V13.668C18.1586 13.5836 18.4013 13.4832 18.6367 13.3672L19.457 14.1875C19.5308 14.2607 19.6305 14.3018 19.7344 14.3018C19.8383 14.3018 19.938 14.2607 20.0117 14.1875L22.4063 11.7969C22.4776 11.722 22.518 11.6229 22.5195 11.5195C22.5188 11.416 22.4782 11.3167 22.4063 11.2422L21.5859 10.4219C21.6996 10.186 21.7988 9.94333 21.8828 9.69531H23.0469C23.1505 9.69531 23.2498 9.65416 23.3231 9.5809C23.3963 9.50764 23.4375 9.40829 23.4375 9.30469V5.91797C23.4375 5.81437 23.3963 5.71501 23.3231 5.64176C23.2498 5.5685 23.1505 5.52734 23.0469 5.52734ZM11.6367 14.832C11.6367 15.4316 11.4589 16.0176 11.1259 16.5161C10.7928 17.0146 10.3194 17.4031 9.76548 17.6325C9.21159 17.862 8.60211 17.922 8.0141 17.805C7.4261 17.6881 6.88598 17.3994 6.46205 16.9754C6.03812 16.5515 5.74942 16.0114 5.63246 15.4234C5.5155 14.8354 5.57553 14.2259 5.80496 13.672C6.03439 13.1181 6.42291 12.6447 6.9214 12.3116C7.41988 11.9786 8.00594 11.8008 8.60547 11.8008C8.85437 11.7993 9.10245 11.8295 9.34375 11.8906L11.5469 14.0938C11.608 14.335 11.6382 14.5831 11.6367 14.832ZM22.6562 8.91406H21.5977C21.5141 8.91384 21.4327 8.94076 21.3658 8.99078C21.2989 9.0408 21.25 9.11121 21.2266 9.19141C21.1105 9.57821 20.9561 9.95246 20.7656 10.3086C20.724 10.3826 20.7079 10.4682 20.7199 10.5523C20.7319 10.6363 20.7713 10.7141 20.832 10.7734L21.5781 11.5195L19.7344 13.3594L18.9883 12.6133C18.9279 12.5542 18.8503 12.5159 18.7667 12.504C18.6831 12.492 18.5979 12.507 18.5234 12.5469C18.17 12.7402 17.7968 12.8947 17.4102 13.0078C17.329 13.0315 17.2577 13.0808 17.207 13.1484C17.1563 13.2161 17.1289 13.2983 17.1289 13.3828V14.4414H14.5234V13.3828C14.5232 13.2989 14.4962 13.2173 14.4463 13.1498C14.3964 13.0824 14.3262 13.0326 14.2461 13.0078C13.8581 12.8951 13.4835 12.7406 13.1289 12.5469C13.0544 12.507 12.9692 12.492 12.8856 12.504C12.802 12.5159 12.7244 12.5542 12.6641 12.6133L11.918 13.3594L10.0781 11.5195L10.8242 10.7734C10.8833 10.7131 10.9216 10.6355 10.9335 10.5519C10.9455 10.4683 10.9305 10.3831 10.8906 10.3086C10.6969 9.95401 10.5424 9.57942 10.4297 9.19141C10.4049 9.11126 10.3551 9.04112 10.2877 8.99123C10.2202 8.94135 10.1386 8.91431 10.0547 8.91406H8.99609V6.30859H10.0547C10.1386 6.30835 10.2202 6.28131 10.2877 6.23142C10.3551 6.18153 10.4049 6.1114 10.4297 6.03125C10.5421 5.64314 10.6966 5.26851 10.8906 4.91406C10.9306 4.83963 10.9457 4.75437 10.9337 4.67074C10.9218 4.58711 10.8834 4.50949 10.8242 4.44922L10.0781 3.70312L11.918 1.85938L12.6641 2.60938C12.7243 2.66871 12.8022 2.70689 12.8861 2.71816C12.9699 2.72943 13.0551 2.71319 13.1289 2.67188C13.485 2.48144 13.8593 2.32702 14.2461 2.21094C14.3263 2.18749 14.3967 2.13862 14.4467 2.07169C14.4967 2.00476 14.5237 1.9234 14.5234 1.83984V0.78125H17.1289V1.83984C17.1287 1.9234 17.1556 2.00476 17.2056 2.07169C17.2556 2.13862 17.3261 2.18749 17.4063 2.21094C17.7938 2.32504 18.1682 2.47953 18.5234 2.67188C18.5972 2.71319 18.6825 2.72943 18.7663 2.71816C18.8501 2.70689 18.928 2.66871 18.9883 2.60938L19.7344 1.85938L21.5781 3.70312L20.832 4.44922C20.7712 4.50851 20.7317 4.58625 20.7197 4.67034C20.7077 4.75442 20.7238 4.84012 20.7656 4.91406C20.958 5.26929 21.1125 5.64374 21.2266 6.03125C21.25 6.11145 21.2989 6.18186 21.3658 6.23188C21.4327 6.2819 21.5141 6.30882 21.5977 6.30859H22.6562V8.91406Z"
          fill="white"/>
    <path d="M15.8281 4.21094C15.156 4.21094 14.4989 4.41025 13.9401 4.78368C13.3812 5.1571 12.9456 5.68787 12.6884 6.30885C12.4312 6.92983 12.3639 7.61314 12.495 8.27238C12.6261 8.93161 12.9498 9.53715 13.4251 10.0124C13.9003 10.4877 14.5059 10.8114 15.1651 10.9425C15.8244 11.0736 16.5077 11.0063 17.1287 10.7491C17.7496 10.4919 18.2804 10.0563 18.6538 9.49745C19.0272 8.93858 19.2266 8.28152 19.2266 7.60938C19.2253 6.70843 18.8669 5.84475 18.2298 5.20769C17.5928 4.57062 16.7291 4.21218 15.8281 4.21094ZM15.8281 10.2266C15.3105 10.2266 14.8045 10.0731 14.3741 9.78549C13.9437 9.49791 13.6082 9.08916 13.4102 8.61093C13.2121 8.1327 13.1602 7.60647 13.2612 7.09879C13.3622 6.5911 13.6115 6.12476 13.9775 5.75874C14.3435 5.39272 14.8099 5.14346 15.3175 5.04248C15.8252 4.94149 16.3515 4.99332 16.8297 5.19141C17.3079 5.3895 17.7167 5.72495 18.0042 6.15534C18.2918 6.58574 18.4453 7.09174 18.4453 7.60938C18.4447 8.30345 18.1688 8.96894 17.6782 9.45987C17.1875 9.95081 16.5222 10.2271 15.8281 10.2281V10.2266Z"
          fill="white"/>
</svg>
