<svg width="25" height="26" viewBox="0 0 25 26" fill="none" xmlns="http://www.w3.org/2000/svg">
    <rect width="25" height="25" transform="translate(0 0.421875)" fill="#0D0C0C"/>
    <path d="M23.8281 6.73047H22.6641C22.58 6.48245 22.4809 6.23981 22.3672 6.00391L23.1875 5.18359C23.2607 5.10984 23.3018 5.01015 23.3018 4.90625C23.3018 4.80235 23.2607 4.70266 23.1875 4.62891L20.793 2.23438C20.7174 2.16467 20.6184 2.12597 20.5156 2.12597C20.4128 2.12597 20.3138 2.16467 20.2383 2.23438L19.418 3.05469C19.1821 2.94099 18.9394 2.84185 18.6914 2.75781V1.59375C18.6914 1.49015 18.6503 1.39079 18.577 1.31754C18.5037 1.24428 18.4044 1.20313 18.3008 1.20312H14.9141C14.8105 1.20313 14.7111 1.24428 14.6378 1.31754C14.5646 1.39079 14.5234 1.49015 14.5234 1.59375V2.75781C14.2754 2.84185 14.0328 2.94099 13.7969 3.05469L12.9766 2.23438C12.9021 2.16242 12.8028 2.12186 12.6992 2.12109C12.5958 2.12261 12.4968 2.16306 12.4219 2.23438L10.0312 4.62891C9.95807 4.70266 9.917 4.80235 9.917 4.90625C9.917 5.01015 9.95807 5.10984 10.0312 5.18359L10.8516 6.00391C10.7349 6.23898 10.6344 6.48173 10.5508 6.73047H9.38672C9.28312 6.73047 9.18376 6.77162 9.11051 6.84488C9.03725 6.91814 8.99609 7.01749 8.99609 7.12109V7.42578H7.46094C7.35734 7.42578 7.25798 7.46694 7.18472 7.54019C7.11147 7.61345 7.07031 7.71281 7.07031 7.81641V9.17969C6.76458 9.2828 6.46579 9.40545 6.17578 9.54688L5.21484 8.58594C5.14188 8.51409 5.04381 8.47346 4.94141 8.47266C4.83785 8.47343 4.73855 8.51399 4.66406 8.58594L1.94141 11.3086C1.86878 11.3826 1.8281 11.4822 1.8281 11.5859C1.8281 11.6897 1.86878 11.7892 1.94141 11.8633L2.90234 12.8242C2.75859 13.1132 2.63587 13.4121 2.53516 13.7188H1.17188C1.06827 13.7188 0.968918 13.7599 0.895661 13.8332C0.822405 13.9064 0.78125 14.0058 0.78125 14.1094V17.9609C0.78125 18.0645 0.822405 18.1639 0.895661 18.2372C0.968918 18.3104 1.06827 18.3516 1.17188 18.3516H2.53516C2.63657 18.6579 2.75926 18.9568 2.90234 19.2461L1.94141 20.207C1.90509 20.2426 1.87633 20.2852 1.85687 20.3322C1.8374 20.3792 1.82763 20.4296 1.82812 20.4805C1.82761 20.5319 1.83737 20.5829 1.85682 20.6306C1.87627 20.6782 1.90503 20.7214 1.94141 20.7578L4.66406 23.4805C4.73793 23.5519 4.83668 23.5919 4.93945 23.5919C5.04223 23.5919 5.14098 23.5519 5.21484 23.4805L6.17578 22.5195C6.46504 22.6626 6.76395 22.7853 7.07031 22.8867V24.25C7.07031 24.3536 7.11147 24.453 7.18472 24.5262C7.25798 24.5995 7.35734 24.6406 7.46094 24.6406H11.3125C11.4161 24.6406 11.5155 24.5995 11.5887 24.5262C11.662 24.453 11.7031 24.3536 11.7031 24.25V22.8867C12.0097 22.786 12.3087 22.6633 12.5977 22.5195L13.5586 23.4805C13.6323 23.5537 13.732 23.5947 13.8359 23.5947C13.9398 23.5947 14.0395 23.5537 14.1133 23.4805L16.8359 20.7578C16.9079 20.6833 16.9484 20.584 16.9492 20.4805C16.9484 20.3781 16.9078 20.28 16.8359 20.207L15.875 19.2461C16.0164 18.9561 16.1391 18.6573 16.2422 18.3516H17.6055C17.7091 18.3516 17.8084 18.3104 17.8817 18.2372C17.9549 18.1639 17.9961 18.0645 17.9961 17.9609V16.4258H18.3008C18.4044 16.4258 18.5037 16.3846 18.577 16.3114C18.6503 16.2381 18.6914 16.1388 18.6914 16.0352V14.8711C18.9399 14.7868 19.1826 14.6863 19.418 14.5703L20.2383 15.3906C20.312 15.4638 20.4117 15.5049 20.5156 15.5049C20.6195 15.5049 20.7192 15.4638 20.793 15.3906L23.1875 13C23.2588 12.9251 23.2993 12.8261 23.3008 12.7227C23.3 12.6191 23.2595 12.5198 23.1875 12.4453L22.3672 11.625C22.4809 11.3891 22.58 11.1465 22.6641 10.8984H23.8281C23.9317 10.8984 24.0311 10.8573 24.1043 10.784C24.1776 10.7108 24.2188 10.6114 24.2188 10.5078V7.12109C24.2188 7.01749 24.1776 6.91814 24.1043 6.84488C24.0311 6.77162 23.9317 6.73047 23.8281 6.73047ZM12.418 16.0352C12.418 16.6347 12.2402 17.2207 11.9071 17.7192C11.574 18.2177 11.1006 18.6062 10.5467 18.8357C9.99284 19.0651 9.38336 19.1251 8.79535 19.0082C8.20735 18.8912 7.66723 18.6025 7.2433 18.1786C6.81937 17.7546 6.53067 17.2145 6.41371 16.6265C6.29675 16.0385 6.35678 15.429 6.58621 14.8751C6.81564 14.3213 7.20416 13.8478 7.70265 13.5148C8.20113 13.1817 8.78719 13.0039 9.38672 13.0039C9.63562 13.0025 9.8837 13.0327 10.125 13.0937L12.3281 15.2969C12.3892 15.5382 12.4194 15.7863 12.418 16.0352ZM23.4375 10.1172H22.3789C22.2954 10.117 22.214 10.1439 22.1471 10.1939C22.0801 10.2439 22.0313 10.3143 22.0078 10.3945C21.8917 10.7813 21.7373 11.1556 21.5469 11.5117C21.5052 11.5857 21.4891 11.6714 21.5012 11.7554C21.5132 11.8395 21.5526 11.9172 21.6133 11.9766L22.3594 12.7227L20.5156 14.5625L19.7695 13.8164C19.7092 13.7573 19.6316 13.719 19.548 13.7071C19.4644 13.6951 19.3792 13.7102 19.3047 13.75C18.9513 13.9433 18.578 14.0978 18.1914 14.2109C18.1103 14.2346 18.039 14.2839 17.9883 14.3516C17.9376 14.4192 17.9102 14.5014 17.9102 14.5859V15.6445H15.3047V14.5859C15.3044 14.502 15.2774 14.4204 15.2275 14.353C15.1776 14.2855 15.1075 14.2357 15.0273 14.2109C14.6393 14.0983 14.2647 13.9437 13.9102 13.75C13.8357 13.7102 13.7505 13.6951 13.6669 13.7071C13.5833 13.719 13.5056 13.7573 13.4453 13.8164L12.6992 14.5625L10.8594 12.7227L11.6055 11.9766C11.6646 11.9162 11.7029 11.8386 11.7148 11.755C11.7267 11.6714 11.7117 11.5862 11.6719 11.5117C11.4782 11.1571 11.3236 10.7825 11.2109 10.3945C11.1861 10.3144 11.1364 10.2442 11.0689 10.1944C11.0015 10.1445 10.9198 10.1174 10.8359 10.1172H9.77734V7.51172H10.8359C10.9198 7.51147 11.0015 7.48444 11.0689 7.43455C11.1364 7.38466 11.1861 7.31453 11.2109 7.23438C11.3233 6.84627 11.4779 6.47164 11.6719 6.11719C11.7118 6.04275 11.7269 5.95749 11.715 5.87386C11.703 5.79024 11.6647 5.71262 11.6055 5.65234L10.8594 4.90625L12.6992 3.0625L13.4453 3.8125C13.5056 3.87184 13.5835 3.91001 13.6673 3.92128C13.7511 3.93255 13.8364 3.91631 13.9102 3.875C14.2663 3.68456 14.6405 3.53015 15.0273 3.41406C15.1075 3.39061 15.1779 3.34175 15.228 3.27482C15.278 3.20789 15.3049 3.12652 15.3047 3.04297V1.98438H17.9102V3.04297C17.9099 3.12652 17.9369 3.20789 17.9869 3.27482C18.0369 3.34175 18.1073 3.39061 18.1875 3.41406C18.575 3.52816 18.9495 3.68265 19.3047 3.875C19.3785 3.91631 19.4637 3.93255 19.5475 3.92128C19.6314 3.91001 19.7093 3.87184 19.7695 3.8125L20.5156 3.0625L22.3594 4.90625L21.6133 5.65234C21.5525 5.71163 21.513 5.78938 21.5009 5.87346C21.4889 5.95755 21.5051 6.04324 21.5469 6.11719C21.7392 6.47241 21.8937 6.84687 22.0078 7.23438C22.0313 7.31457 22.0801 7.38498 22.1471 7.435C22.214 7.48502 22.2954 7.51194 22.3789 7.51172H23.4375V10.1172Z"
          fill="white"/>
    <path d="M16.6094 5.41406C15.9372 5.41406 15.2802 5.61338 14.7213 5.9868C14.1624 6.36023 13.7268 6.89099 13.4696 7.51197C13.2124 8.13296 13.1451 8.81627 13.2762 9.4755C13.4074 10.1347 13.731 10.7403 14.2063 11.2156C14.6816 11.6908 15.2871 12.0145 15.9464 12.1456C16.6056 12.2768 17.2889 12.2095 17.9099 11.9522C18.5309 11.695 19.0616 11.2594 19.4351 10.7006C19.8085 10.1417 20.0078 9.48465 20.0078 8.8125C20.0066 7.91156 19.6481 7.04787 19.0111 6.41081C18.374 5.77375 17.5103 5.4153 16.6094 5.41406ZM16.6094 11.4297C16.0917 11.4297 15.5857 11.2762 15.1553 10.9886C14.7249 10.701 14.3895 10.2923 14.1914 9.81405C13.9933 9.33583 13.9415 8.8096 14.0425 8.30191C14.1435 7.79423 14.3927 7.32789 14.7587 6.96187C15.1248 6.59585 15.5911 6.34659 16.0988 6.2456C16.6065 6.14462 17.1327 6.19645 17.6109 6.39453C18.0892 6.59262 18.4979 6.92807 18.7855 7.35847C19.0731 7.78886 19.2266 8.29487 19.2266 8.8125C19.2259 9.50658 18.9501 10.1721 18.4594 10.663C17.9688 11.1539 17.3035 11.4302 16.6094 11.4312V11.4297Z"
          fill="white"/>
</svg>
