<svg width="44" height="44" viewBox="0 0 44 44" fill="none" xmlns="http://www.w3.org/2000/svg">
    <g filter="url(#filter0_d_513_5132)">
        <g clip-path="url(#clip0_513_5132)">
            <rect x="4" width="36" height="36" rx="5" fill="white"/>
            <g filter="url(#filter1_d_513_5132)">
                <path d="M18 15.3438V13.7763H26.2773V15.3438" stroke="black" stroke-width="2" stroke-miterlimit="10"/>
                <path d="M22.1406 13.7757V22" stroke="black" stroke-width="2" stroke-miterlimit="10"/>
                <path d="M20.5391 21.6211H23.7419" stroke="black" stroke-width="2" stroke-miterlimit="10"/>
                <mask id="mask0_513_5132" style="mask-type:luminance" maskUnits="userSpaceOnUse" x="9" y="5" width="26"
                      height="26">
                    <path d="M9 5.00001H35V31H9V5.00001Z" fill="white"/>
                </mask>
                <g mask="url(#mask0_513_5132)">
                    <path d="M11.5703 9.39258V26.3789" stroke="black" stroke-width="2" stroke-miterlimit="10"/>
                    <path d="M32.4219 9.39258V26.3789" stroke="black" stroke-width="2" stroke-miterlimit="10"/>
                    <path d="M13.3906 7.57812H30.6055" stroke="black" stroke-width="2" stroke-miterlimit="10"/>
                    <path d="M13.3906 28.4219H30.6055" stroke="black" stroke-width="2" stroke-miterlimit="10"/>
                    <path d="M14.0911 7.92707C14.0911 9.12368 13.1211 10.0938 11.9245 10.0938C10.7279 10.0938 9.75781 9.12368 9.75781 7.92707C9.75781 6.73046 10.7279 5.76038 11.9245 5.76038C13.1211 5.76038 14.0911 6.73046 14.0911 7.92707Z"
                          stroke="black" stroke-width="2" stroke-miterlimit="10"/>
                    <path d="M14.0911 28.0716C14.0911 29.2682 13.1211 30.2383 11.9245 30.2383C10.7279 30.2383 9.75781 29.2682 9.75781 28.0716C9.75781 26.875 10.7279 25.9049 11.9245 25.9049C13.1211 25.9049 14.0911 26.875 14.0911 28.0716Z"
                          stroke="black" stroke-width="2" stroke-miterlimit="10"/>
                    <path d="M34.2318 7.92707C34.2318 9.12368 33.2617 10.0938 32.0651 10.0938C30.8685 10.0938 29.8984 9.12368 29.8984 7.92707C29.8984 6.73046 30.8685 5.76038 32.0651 5.76038C33.2617 5.76038 34.2318 6.73046 34.2318 7.92707Z"
                          stroke="black" stroke-width="2" stroke-miterlimit="10"/>
                    <path d="M34.2318 28.0716C34.2318 29.2682 33.2617 30.2383 32.0651 30.2383C30.8685 30.2383 29.8984 29.2682 29.8984 28.0716C29.8984 26.875 30.8685 25.9049 32.0651 25.9049C33.2617 25.9049 34.2318 26.875 34.2318 28.0716Z"
                          stroke="black" stroke-width="2" stroke-miterlimit="10"/>
                </g>
            </g>
        </g>
    </g>
    <defs>
        <filter id="filter0_d_513_5132" x="0" y="0" width="44" height="44" filterUnits="userSpaceOnUse"
                color-interpolation-filters="sRGB">
            <feFlood flood-opacity="0" result="BackgroundImageFix"/>
            <feColorMatrix in="SourceAlpha" type="matrix" values="0 0 0 0 0 0 0 0 0 0 0 0 0 0 0 0 0 0 127 0"
                           result="hardAlpha"/>
            <feOffset dy="4"/>
            <feGaussianBlur stdDeviation="2"/>
            <feComposite in2="hardAlpha" operator="out"/>
            <feColorMatrix type="matrix" values="0 0 0 0 0 0 0 0 0 0 0 0 0 0 0 0 0 0 0.25 0"/>
            <feBlend mode="normal" in2="BackgroundImageFix" result="effect1_dropShadow_513_5132"/>
            <feBlend mode="normal" in="SourceGraphic" in2="effect1_dropShadow_513_5132" result="shape"/>
        </filter>
        <filter id="filter1_d_513_5132" x="5" y="5" width="34" height="34" filterUnits="userSpaceOnUse"
                color-interpolation-filters="sRGB">
            <feFlood flood-opacity="0" result="BackgroundImageFix"/>
            <feColorMatrix in="SourceAlpha" type="matrix" values="0 0 0 0 0 0 0 0 0 0 0 0 0 0 0 0 0 0 127 0"
                           result="hardAlpha"/>
            <feOffset dy="4"/>
            <feGaussianBlur stdDeviation="2"/>
            <feComposite in2="hardAlpha" operator="out"/>
            <feColorMatrix type="matrix" values="0 0 0 0 0 0 0 0 0 0 0 0 0 0 0 0 0 0 0.25 0"/>
            <feBlend mode="normal" in2="BackgroundImageFix" result="effect1_dropShadow_513_5132"/>
            <feBlend mode="normal" in="SourceGraphic" in2="effect1_dropShadow_513_5132" result="shape"/>
        </filter>
        <clipPath id="clip0_513_5132">
            <rect x="4" width="36" height="36" rx="5" fill="white"/>
        </clipPath>
    </defs>
</svg>
